<svg width="453" height="285" viewBox="0 0 453 285" fill="none" xmlns="http://www.w3.org/2000/svg">
<path d="M0.787598 24.969C0.787598 11.7142 11.5328 0.968994 24.7876 0.968994H226.792H428.797C442.051 0.968994 452.797 11.7142 452.797 24.969V260.715C452.797 273.97 442.051 284.715 428.797 284.715H24.7876C11.5328 284.715 0.787598 273.97 0.787598 260.715V24.969Z" fill="#F2F5F7"/>
<path d="M315.259 197.842H117.016C108.594 197.842 101.767 191.015 101.767 182.593V65.3622C101.767 56.9402 108.594 50.1132 117.016 50.1132H315.259C323.681 50.1132 330.508 56.9402 330.508 65.3622V182.592C330.508 191.014 323.681 197.842 315.259 197.842Z" fill="white"/>
<path d="M315.259 199.842H117.016C107.505 199.842 99.7666 192.104 99.7666 182.592V65.3622C99.7666 55.8512 107.505 48.1122 117.016 48.1122H315.259C324.771 48.1122 332.509 55.8502 332.509 65.3622V182.592C332.509 192.103 324.771 199.842 315.259 199.842ZM117.016 52.1122C109.71 52.1122 103.767 58.0562 103.767 65.3622V182.592C103.767 189.898 109.71 195.842 117.016 195.842H315.259C322.565 195.842 328.509 189.898 328.509 182.592V65.3622C328.509 58.0562 322.565 52.1122 315.259 52.1122H117.016Z" fill="#292929"/>
<path d="M153.802 216.521H116.631C114.61 216.521 112.971 214.882 112.971 212.861C112.971 210.84 114.61 209.201 116.631 209.201H153.802C155.823 209.201 157.462 210.84 157.462 212.861C157.462 214.882 155.823 216.521 153.802 216.521Z" fill="#292929"/>
<path d="M315.644 153.49H116.631C114.61 153.49 112.971 151.851 112.971 149.83C112.971 147.809 114.61 146.17 116.631 146.17H315.644C317.665 146.17 319.304 147.809 319.304 149.83C319.304 151.851 317.665 153.49 315.644 153.49Z" fill="#292929"/>
<path d="M224.239 170.645H116.631C114.61 170.645 112.971 169.006 112.971 166.985C112.971 164.964 114.61 163.325 116.631 163.325H224.239C226.26 163.325 227.899 164.964 227.899 166.985C227.899 169.006 226.26 170.645 224.239 170.645Z" fill="#292929"/>
<path d="M151.785 195.602H123.036C119.499 195.602 116.631 192.734 116.631 189.197V163.7C116.631 160.163 119.499 157.295 123.036 157.295H151.785C155.322 157.295 158.19 160.163 158.19 163.7V189.198C158.189 192.735 155.322 195.602 151.785 195.602Z" fill="white"/>
<path d="M150.678 188.056H124.144C123.04 188.056 122.144 187.16 122.144 186.056C122.144 184.952 123.04 184.056 124.144 184.056H150.678C151.782 184.056 152.678 184.952 152.678 186.056C152.678 187.16 151.782 188.056 150.678 188.056Z" fill="#292929"/>
<path d="M150.678 168.842H124.144C123.04 168.842 122.144 167.946 122.144 166.842C122.144 165.738 123.04 164.842 124.144 164.842H150.678C151.782 164.842 152.678 165.738 152.678 166.842C152.678 167.946 151.782 168.842 150.678 168.842Z" fill="#292929"/>
<path d="M129.83 188.056C128.726 188.056 127.83 187.16 127.83 186.056V166.842C127.83 165.738 128.726 164.842 129.83 164.842C130.934 164.842 131.83 165.738 131.83 166.842V186.056C131.83 187.16 130.935 188.056 129.83 188.056Z" fill="#292929"/>
<path d="M144.992 188.056C143.888 188.056 142.992 187.16 142.992 186.056V166.842C142.992 165.738 143.888 164.842 144.992 164.842C146.096 164.842 146.992 165.738 146.992 166.842V186.056C146.992 187.16 146.097 188.056 144.992 188.056Z" fill="#292929"/>
<path d="M151.784 113.602H123.035C118.4 113.602 114.63 109.831 114.63 105.197V79.7003C114.63 75.0663 118.401 71.2953 123.035 71.2953H151.784C156.418 71.2953 160.188 75.0663 160.188 79.7003V105.198C160.188 109.832 156.418 113.602 151.784 113.602ZM123.035 75.2953C120.606 75.2953 118.63 77.2713 118.63 79.7003V105.198C118.63 107.627 120.607 109.603 123.035 109.603H151.784C154.213 109.603 156.188 107.627 156.188 105.198V79.7003C156.188 77.2713 154.212 75.2953 151.784 75.2953H123.035Z" fill="#292929"/>
<path d="M306.266 75.2522C305.449 73.8362 303.938 72.9652 302.303 72.9652H292.098V117.469H302.303C303.937 117.469 305.449 116.597 306.266 115.182L316.471 97.5052C317.288 96.0902 317.288 94.3462 316.471 92.9302L306.266 75.2522Z" fill="white"/>
<path d="M292.098 72.9642H281.892C280.258 72.9642 278.747 73.8362 277.93 75.2512L267.724 92.9282C266.907 94.3432 266.907 96.0872 267.724 97.5032L277.93 115.18C278.747 116.596 280.258 117.467 281.892 117.467H292.098V72.9642Z" fill="#858BA0"/>
<path d="M302.303 119.468H292.098C290.994 119.468 290.098 118.572 290.098 117.468V72.9642C290.098 71.8602 290.994 70.9642 292.098 70.9642H302.303C304.645 70.9642 306.826 72.2242 307.997 74.2522L318.204 91.9292C319.375 93.9572 319.375 96.4762 318.204 98.5042L307.997 116.181C306.826 118.208 304.645 119.468 302.303 119.468ZM294.098 115.468H302.303C303.22 115.468 304.075 114.975 304.533 114.181L314.739 96.5042C315.198 95.7102 315.198 94.7232 314.739 93.9292L304.533 76.2522C304.075 75.4582 303.219 74.9642 302.303 74.9642H294.098V115.468Z" fill="#292929"/>
<path d="M292.097 119.468H281.892C279.55 119.468 277.369 118.209 276.198 116.181L265.991 98.5042C264.822 96.4762 264.822 93.9572 265.991 91.9302L276.198 74.2522C277.369 72.2242 279.551 70.9642 281.892 70.9642H292.097C293.201 70.9642 294.097 71.8602 294.097 72.9642V117.467C294.097 118.572 293.201 119.468 292.097 119.468ZM281.892 74.9642C280.975 74.9642 280.121 75.4572 279.663 76.2522L269.456 93.9292C268.998 94.7232 268.998 95.7102 269.456 96.5052L279.663 114.181C280.121 114.975 280.976 115.468 281.892 115.468H290.097V74.9642H281.892Z" fill="#292929"/>
<path d="M319.019 145.612H304.601V176.17H319.019V145.612Z" fill="white"/>
<path d="M297.128 150.764H326.489C329.002 150.764 330.476 147.937 329.038 145.877L314.358 124.838C313.121 123.065 310.497 123.065 309.26 124.838L294.58 145.877C293.141 147.937 294.616 150.764 297.128 150.764Z" fill="white"/>
<path d="M319.018 178.17H304.6C303.496 178.17 302.6 177.274 302.6 176.17V152.764H297.128C295.218 152.764 293.482 151.712 292.6 150.018C291.716 148.325 291.846 146.299 292.939 144.732L307.62 123.693C308.574 122.325 310.141 121.508 311.809 121.508C313.477 121.508 315.044 122.325 315.998 123.694L330.679 144.732C331.772 146.299 331.902 148.325 331.018 150.018C330.135 151.712 328.4 152.764 326.49 152.764H321.018V176.17C321.018 177.274 320.122 178.17 319.018 178.17ZM306.6 174.17H317.018V150.764C317.018 149.66 317.914 148.764 319.018 148.764H326.49C327.096 148.764 327.379 148.347 327.472 148.168C327.565 147.989 327.745 147.519 327.398 147.021L312.717 125.982C312.43 125.569 312.025 125.508 311.809 125.508C311.593 125.508 311.188 125.57 310.901 125.982L296.22 147.021C295.872 147.519 296.052 147.989 296.146 148.168C296.24 148.347 296.522 148.764 297.128 148.764H304.6C305.704 148.764 306.6 149.66 306.6 150.764V174.17Z" fill="#292929"/>
<path d="M311.81 245.342C333.906 245.342 351.818 227.43 351.818 205.334C351.818 183.238 333.906 165.326 311.81 165.326C289.714 165.326 271.802 183.238 271.802 205.334C271.802 227.43 289.714 245.342 311.81 245.342Z" fill="white"/>
<path d="M311.81 247.342C288.647 247.342 269.802 228.497 269.802 205.334C269.802 182.171 288.647 163.326 311.81 163.326C334.973 163.326 353.818 182.171 353.818 205.334C353.817 228.497 334.973 247.342 311.81 247.342ZM311.81 167.326C290.852 167.326 273.802 184.376 273.802 205.334C273.802 226.292 290.852 243.342 311.81 243.342C332.768 243.342 349.818 226.292 349.818 205.334C349.817 184.376 332.768 167.326 311.81 167.326Z" fill="#292929"/>
<path d="M311.81 237.573C294.034 237.573 279.571 223.11 279.571 205.333C279.571 187.556 294.034 173.093 311.81 173.093C329.586 173.093 344.049 187.556 344.049 205.333C344.049 223.11 329.586 237.573 311.81 237.573ZM311.81 177.094C296.239 177.094 283.571 189.762 283.571 205.334C283.571 220.906 296.239 233.574 311.81 233.574C327.381 233.574 340.049 220.906 340.049 205.334C340.049 189.762 327.381 177.094 311.81 177.094Z" fill="#292929"/>
<path d="M311.81 243.391C332.818 243.391 349.849 226.36 349.849 205.352C349.849 184.343 332.818 167.312 311.81 167.312C290.801 167.312 273.77 184.343 273.77 205.352C273.77 226.36 290.801 243.391 311.81 243.391Z" fill="#28A5EB"/>
<path d="M315.87 199.468H315.661V186.869H315.87C319.343 186.869 322.17 189.695 322.17 193.169C322.17 195.297 323.895 197.022 326.023 197.022C328.151 197.022 329.876 195.297 329.876 193.169C329.876 185.446 323.594 179.164 315.871 179.164H315.663V178.955C315.663 176.828 313.938 175.102 311.81 175.102C309.681 175.102 307.957 176.827 307.957 178.955V179.164H307.748C300.025 179.164 293.743 185.446 293.743 193.169C293.743 200.891 300.025 207.173 307.748 207.173H307.957V223.833H307.748C304.275 223.833 301.448 221.006 301.448 217.533C301.448 215.405 299.724 213.68 297.595 213.68C295.467 213.68 293.742 215.405 293.742 217.533C293.742 225.256 300.024 231.538 307.747 231.538H307.955V231.746C307.955 233.874 309.68 235.599 311.808 235.599C313.937 235.599 315.661 233.875 315.661 231.746V231.538H315.87C323.593 231.538 329.875 225.256 329.875 217.533V213.473C329.875 205.75 323.593 199.468 315.87 199.468ZM307.748 199.468C304.275 199.468 301.448 196.642 301.448 193.169C301.448 189.695 304.275 186.869 307.748 186.869H307.957V199.468H307.748ZM322.17 217.533C322.17 221.006 319.343 223.833 315.87 223.833H315.661V207.173H315.87C319.343 207.173 322.17 210 322.17 213.473V217.533Z" fill="white"/>
</svg>
