<svg width="453" height="285" viewBox="0 0 453 285" fill="none" xmlns="http://www.w3.org/2000/svg">
<rect x="0.208984" y="0.0825195" width="452.009" height="283.746" rx="24" fill="#F2F5F6"/>
<path d="M352.712 189.758H99.7149C96.124 189.758 93.2139 186.847 93.2139 183.257V55.6905C93.2139 52.0995 96.125 49.1895 99.7149 49.1895H352.712C356.303 49.1895 359.213 52.1005 359.213 55.6905V183.257C359.213 186.848 356.302 189.758 352.712 189.758Z" fill="white"/>
<path d="M339.709 177.258H112.719C108.857 177.258 105.715 174.116 105.715 170.254V68.6936C105.715 64.8323 108.857 61.6893 112.719 61.6893H339.709C343.571 61.6893 346.713 64.8312 346.713 68.6936V170.254C346.713 174.116 343.571 177.258 339.709 177.258ZM112.719 65.9463C111.204 65.9463 109.971 67.1795 109.971 68.6946V170.255C109.971 171.77 111.204 173.003 112.719 173.003H339.709C341.224 173.003 342.457 171.77 342.457 170.255V68.6936C342.457 67.1784 341.224 65.9453 339.709 65.9453H112.719V65.9463Z" fill="#292929"/>
<path d="M226.213 163.678C250.626 163.678 270.417 143.887 270.417 119.474C270.417 95.0608 250.626 75.2701 226.213 75.2701C201.8 75.2701 182.01 95.0608 182.01 119.474C182.01 143.887 201.8 163.678 226.213 163.678Z" fill="#28A5EB"/>
<path d="M226.213 165.806C200.666 165.806 179.882 145.021 179.882 119.474C179.882 93.9262 200.666 73.1422 226.213 73.1422C251.761 73.1422 272.545 93.9262 272.545 119.474C272.545 145.021 251.761 165.806 226.213 165.806ZM226.213 77.3981C203.013 77.3981 184.138 96.2734 184.138 119.474C184.138 142.674 203.013 161.55 226.213 161.55C249.414 161.55 268.289 142.674 268.289 119.474C268.289 96.2734 249.414 77.3981 226.213 77.3981Z" fill="#292929"/>
<path d="M352.712 191.886H99.7149C94.9568 191.886 91.0859 188.015 91.0859 183.257V55.6905C91.0859 50.9323 94.9568 47.0615 99.7149 47.0615H352.712C357.47 47.0615 361.341 50.9323 361.341 55.6905V183.257C361.341 188.015 357.469 191.886 352.712 191.886ZM99.7149 51.3175C97.3039 51.3175 95.3419 53.2795 95.3419 55.6905V183.257C95.3419 185.669 97.3039 187.63 99.7149 187.63H352.712C355.124 187.63 357.085 185.668 357.085 183.257V55.6905C357.085 53.2785 355.123 51.3175 352.712 51.3175H99.7149Z" fill="#292929"/>
<path d="M298.483 146.525L291.556 147.514L289.412 151.472V203.59H276.053L272.589 206.064L273.744 212.331L304.75 249.11L309.698 249.935L338.066 216.289L344.003 207.383L341.034 203.59H326.191V157.905L324.871 147.514L318.274 145.7L298.483 146.525Z" fill="white"/>
<path d="M303.454 249.554L303.455 249.554C304.562 250.861 306.181 251.611 307.893 251.611C309.606 251.611 311.224 250.862 312.33 249.553L344.48 211.614C345.961 209.867 346.282 207.485 345.319 205.407C344.357 203.33 342.331 202.035 340.041 202.035H327.865V150.379C327.865 147.171 325.256 144.562 322.048 144.562H293.737C290.53 144.562 287.92 147.17 287.92 150.379V202.035H275.743C273.454 202.035 271.428 203.329 270.465 205.407C269.502 207.485 269.825 209.867 271.305 211.614L271.305 211.614L303.454 249.554ZM273.779 206.943L273.779 206.943C274.145 206.152 274.872 205.688 275.744 205.688H289.747C290.755 205.688 291.573 204.87 291.573 203.862V150.379C291.573 149.186 292.545 148.214 293.738 148.214H322.049C323.243 148.214 324.215 149.186 324.215 150.379V203.862C324.215 204.87 325.033 205.688 326.041 205.688H340.043C340.914 205.688 341.641 206.152 342.008 206.943C342.375 207.734 342.259 208.589 341.696 209.254C341.696 209.254 341.695 209.254 341.695 209.254L309.545 247.194L309.545 247.194C309.133 247.681 308.531 247.96 307.893 247.96C307.256 247.96 306.654 247.681 306.241 247.194L274.091 209.254C274.091 209.254 274.091 209.254 274.091 209.254C273.528 208.589 273.412 207.734 273.779 206.943Z" fill="#292929" stroke="#292929"/>
<path d="M229.928 114.094H229.737V102.571H229.928C233.104 102.571 235.689 105.156 235.689 108.332C235.689 110.279 237.266 111.856 239.213 111.856C241.16 111.856 242.737 110.279 242.737 108.332C242.737 101.269 236.991 95.524 229.929 95.524H229.738V95.3331C229.738 93.3876 228.161 91.8092 226.214 91.8092C224.267 91.8092 222.69 93.3865 222.69 95.3331V95.524H222.499C215.436 95.524 209.691 101.269 209.691 108.332C209.691 115.395 215.436 121.14 222.499 121.14H222.69V136.377H222.499C219.323 136.377 216.738 133.792 216.738 130.615C216.738 128.669 215.16 127.092 213.214 127.092C211.267 127.092 209.69 128.669 209.69 130.615C209.69 137.678 215.435 143.423 222.498 143.423H222.689V143.614C222.689 145.56 224.266 147.138 226.213 147.138C228.159 147.138 229.737 145.561 229.737 143.614V143.423H229.928C236.99 143.423 242.736 137.678 242.736 130.615V126.902C242.736 119.839 236.99 114.094 229.928 114.094ZM222.499 114.094C219.323 114.094 216.738 111.509 216.738 108.332C216.738 105.156 219.323 102.571 222.499 102.571H222.69V114.094H222.499V114.094ZM235.689 130.615C235.689 133.792 233.104 136.377 229.928 136.377H229.737V121.14H229.928C233.104 121.14 235.689 123.725 235.689 126.902V130.615Z" fill="white"/>
</svg>
