<svg width="702" height="301" viewBox="0 0 702 301" fill="none" xmlns="http://www.w3.org/2000/svg">
<g filter="url(#filter21_d)">
<path d="M43.1167 67.6872C43.1167 54.4324 53.8619 43.6873 67.1167 43.6873H568.356C575.79 43.6873 582.804 47.1322 587.349 53.0153L649.69 133.717C656.366 142.36 656.366 154.419 649.69 163.061L587.349 243.763C582.804 249.646 575.79 253.091 568.356 253.091H67.1167C53.8619 253.091 43.1167 242.346 43.1167 229.091V67.6872Z" fill="white"/>
<path d="M67.1167 44.1873H568.356C575.635 44.1873 582.503 47.5605 586.953 53.321L649.295 134.023C655.832 142.485 655.832 154.293 649.295 162.756L586.953 243.458C582.503 249.218 575.635 252.591 568.356 252.591H67.1167C54.138 252.591 43.6167 242.07 43.6167 229.091V67.6872C43.6167 54.7085 54.138 44.1873 67.1167 44.1873Z" stroke="#EBEBEB"/>
</g>
<defs>
<filter id="filter21_d" x="0.116699" y="0.687256" width="701.581" height="299.404" filterUnits="userSpaceOnUse" color-interpolation-filters="sRGB">
<feFlood flood-opacity="0" result="BackgroundImageFix"/>
<feColorMatrix in="SourceAlpha" type="matrix" values="0 0 0 0 0 0 0 0 0 0 0 0 0 0 0 0 0 0 127 0" result="hardAlpha"/>
<feOffset dx="2" dy="2"/>
<feGaussianBlur stdDeviation="22.5"/>
<feComposite in2="hardAlpha" operator="out"/>
<feColorMatrix type="matrix" values="0 0 0 0 0 0 0 0 0 0 0 0 0 0 0 0 0 0 0.05 0"/>
<feBlend mode="normal" in2="BackgroundImageFix" result="effect1_dropShadow"/>
<feBlend mode="normal" in="SourceGraphic" in2="effect1_dropShadow" result="shape"/>
</filter>
</defs>
</svg>
