<svg width="9" height="12" viewBox="0 0 9 12" fill="none" xmlns="http://www.w3.org/2000/svg">
<path d="M5.25667 0.572746C5.20869 0.501362 5.14548 0.443204 5.07226 0.403085C4.99904 0.362966 4.91792 0.342041 4.83562 0.342041C4.75332 0.342041 4.67221 0.362966 4.59899 0.403085C4.52577 0.443204 4.46255 0.501362 4.41457 0.572746L1.63047 4.72172C1.20848 5.35074 0.957093 6.09177 0.903932 6.86338C0.85077 7.63499 0.997893 8.4073 1.32913 9.09546C1.66037 9.78362 2.16291 10.361 2.78152 10.7641C3.40012 11.1672 4.11086 11.3805 4.83562 11.3805C5.56039 11.3805 6.27112 11.1672 6.88973 10.7641C7.50834 10.361 8.01088 9.78362 8.34212 9.09546C8.67335 8.4073 8.82048 7.63499 8.76732 6.86338C8.71415 6.09177 8.46277 5.35074 8.04078 4.72172L5.25667 0.572746Z" fill="#28A5EB"/>
</svg>
