<svg width="64" height="65" viewBox="0 0 64 65" fill="none" xmlns="http://www.w3.org/2000/svg">
<rect y="0.726807" width="64" height="64" rx="32" fill="#F2F5F6"/>
<path d="M41.739 13.367L42.5466 12.5482L42.2107 12.217L41.739 12.217L41.739 13.367ZM48.7568 20.2888H49.9068V19.8078L49.5643 19.47L48.7568 20.2888ZM15.5687 29.5277L15.8619 28.4157L15.8093 28.4019L15.7556 28.393L15.5687 29.5277ZM19.2063 30.4868L19.5761 29.3979L19.5382 29.385L19.4995 29.3748L19.2063 30.4868ZM19.9122 32.1043L21.0477 32.286L19.9122 32.1043ZM16.593 46.4525L17.7074 46.7365L17.7096 46.7279L17.7117 46.7192L16.593 46.4525ZM11.4183 46.7922L10.976 47.8538L11.0244 47.8739L11.0745 47.8896L11.4183 46.7922ZM13.6397 30.9021L12.5243 30.6219L12.5196 30.6408L12.5155 30.6597L13.6397 30.9021ZM14.9814 29.5277L15.1885 30.6589L14.9814 29.5277ZM16.8712 45.284L15.7524 45.018L16.8712 45.284ZM27.4943 55.6226L26.6922 56.4467L26.7253 56.4789L26.7608 56.5083L27.4943 55.6226ZM30.2287 55.3213L29.3386 54.5931L30.2287 55.3213ZM29.5798 51.7064L30.2483 50.7706L29.5798 51.7064ZM28.0721 48.6192C27.6341 48.1593 26.9062 48.1415 26.4463 48.5795C25.9864 49.0175 25.9686 49.7455 26.4066 50.2054L28.0721 48.6192ZM33.6582 55.6226L32.8617 56.4521L32.9693 56.5554L33.0997 56.6278L33.6582 55.6226ZM35.767 55.3213L36.6387 56.0714L35.767 55.3213ZM31.7651 46.1255C31.332 45.6609 30.6043 45.6353 30.1397 46.0684C29.6751 46.5014 29.6496 47.2291 30.0826 47.6937L31.7651 46.1255ZM40.3551 49.9221L39.5592 50.7521L39.602 50.7932L39.6489 50.8296L40.3551 49.9221ZM34.9408 43.1367C34.4824 42.6971 33.7544 42.7123 33.3148 43.1707C32.8752 43.6291 32.8905 44.3571 33.3489 44.7967L34.9408 43.1367ZM44.1269 50.0921L43.2174 49.3883L44.1269 50.0921ZM42.9968 46.4349L42.254 47.3127L42.9968 46.4349ZM35.5633 39.0673L36.38 38.2576L36.3613 38.2388L36.3418 38.2208L35.5633 39.0673ZM30.9239 39.0673L31.5809 40.0111L31.6173 39.9857L31.6517 39.9576L30.9239 39.0673ZM28.2918 40.8994L28.9464 41.8449L28.9488 41.8433L28.2918 40.8994ZM25.0278 40.8994L25.3549 39.7969L25.27 39.7717L25.1823 39.7598L25.0278 40.8994ZM28.4926 33.819L29.2703 34.6662L29.2845 34.6532L29.2983 34.6397L28.4926 33.819ZM31.2192 31.1422L30.5372 30.2163L30.4716 30.2646L30.4136 30.3216L31.2192 31.1422ZM39.1898 33.5164L38.4714 34.4144L38.5011 34.4382L38.5323 34.4599L39.1898 33.5164ZM19.8638 32.3646L18.736 32.1397L19.8638 32.3646ZM44.1269 32.0768L42.977 32.0929L42.9787 32.2139L43.0055 32.3319L44.1269 32.0768ZM53.2865 45.2104L52.162 45.4511L52.1703 45.4899L52.1813 45.5281L53.2865 45.2104ZM49.0146 47.7523L48.7357 46.6367L48.7061 46.6441L48.6769 46.653L49.0146 47.7523ZM23.0507 25.9959C23.0507 25.3608 22.5358 24.8459 21.9007 24.8459C21.2656 24.8459 20.7507 25.3608 20.7507 25.9959L23.0507 25.9959ZM24.6401 27.3881L24.7712 28.5306L24.6401 27.3881ZM26.8407 25.0978L25.695 24.9981L25.6772 25.2025L25.7312 25.4003L26.8407 25.0978ZM22.4396 19.574L21.5562 18.8378L21.4765 18.9334L21.4191 19.0439L22.4396 19.574ZM25.9665 20.6805C26.3792 21.1633 27.1051 21.2201 27.5879 20.8074C28.0707 20.3947 28.1275 19.6688 27.7148 19.186L25.9665 20.6805ZM25.5211 16.61C25.5211 15.9749 25.0063 15.46 24.3711 15.46C23.736 15.46 23.2211 15.9749 23.2211 16.61H25.5211ZM24.3711 27.413L24.2915 26.2658L24.3711 27.413ZM23.2211 29.5277C23.2211 30.1629 23.736 30.6777 24.3711 30.6777C25.0063 30.6777 25.5211 30.1629 25.5211 29.5277H23.2211ZM14.8957 13.6513L13.7457 13.6575L14.8957 13.6513ZM15.1785 14.5169L41.739 14.517L41.739 12.217L15.1785 12.2169L15.1785 14.5169ZM40.9315 14.1857L47.9492 21.1075L49.5643 19.47L42.5466 12.5482L40.9315 14.1857ZM48.7568 19.1388H42.0218V21.4388H48.7568V19.1388ZM42.889 20.006V13.367H40.589V20.006H42.889ZM47.6068 20.2888V29.782H49.9068V20.2888H47.6068ZM15.2755 30.6397L18.9131 31.5988L19.4995 29.3748L15.8619 28.4157L15.2755 30.6397ZM18.8364 31.5757C18.7751 31.5548 18.7514 31.535 18.7504 31.5342C18.7452 31.5301 18.7486 31.5314 18.7549 31.5418C18.7601 31.5504 18.774 31.5757 18.7834 31.628C18.7929 31.6811 18.8001 31.7758 18.7766 31.9226L21.0477 32.286C21.3054 30.6754 20.4006 29.6779 19.5761 29.3979L18.8364 31.5757ZM15.4787 46.1684C15.4759 46.1793 15.4619 46.2232 15.4302 46.2798C15.3995 46.3347 15.3634 46.3816 15.327 46.4157C15.2927 46.4479 15.2623 46.4654 15.2339 46.4754C15.2084 46.4844 15.1547 46.4982 15.0548 46.4864L14.786 48.7707C15.689 48.8769 16.4084 48.5552 16.9012 48.0925C17.3575 47.6642 17.6062 47.1335 17.7074 46.7365L15.4787 46.1684ZM15.0548 46.4864C14.1055 46.3747 12.4834 45.9208 11.762 45.6948L11.0745 47.8896C11.7993 48.1167 13.6026 48.6314 14.786 48.7707L15.0548 46.4864ZM11.8606 45.7307C11.914 45.7529 11.9263 45.7684 11.9146 45.7579C11.907 45.7511 11.8898 45.7334 11.8716 45.7015C11.8435 45.6522 11.7757 45.5041 11.8236 45.1867L9.54933 44.8434C9.30211 46.4812 10.1827 47.5232 10.976 47.8538L11.8606 45.7307ZM11.8236 45.1867C11.9838 44.1255 13.8418 35.421 14.7638 31.1445L12.5155 30.6597C11.6081 34.8684 9.72368 43.6883 9.54933 44.8434L11.8236 45.1867ZM14.755 31.1823C14.775 31.1027 14.8365 30.9536 14.9372 30.8299C15.0291 30.7169 15.1116 30.673 15.1885 30.6589L14.7742 28.3965C14.0315 28.5326 13.4991 28.9531 13.1531 29.3783C12.8158 29.7928 12.6163 30.2558 12.5243 30.6219L14.755 31.1823ZM15.1885 30.6589C15.2275 30.6518 15.2893 30.6472 15.3817 30.6624L15.7556 28.393C15.4171 28.3373 15.0881 28.3391 14.7742 28.3965L15.1885 30.6589ZM13.7457 13.6575L13.8314 29.5339L16.1314 29.5215L16.0457 13.6451L13.7457 13.6575ZM15.7524 45.018C15.6535 45.4342 15.5602 45.8257 15.4744 46.1857L17.7117 46.7192C17.7976 46.3587 17.891 45.9666 17.99 45.55L15.7524 45.018ZM16.0692 46.1082L26.6922 56.4467L28.2964 54.7984L17.6733 44.4599L16.0692 46.1082ZM26.7608 56.5083C27.1543 56.8341 27.8158 57.1903 28.6103 57.2327C29.4766 57.2788 30.3885 56.942 31.1187 56.0495L29.3386 54.5931C29.1893 54.7756 29.0644 54.8545 28.9817 54.8912C28.8989 54.928 28.818 54.9405 28.7326 54.9359C28.5338 54.9253 28.3287 54.8204 28.2278 54.7368L26.7608 56.5083ZM31.1187 56.0495C32.0758 54.8797 31.9912 53.5972 31.6291 52.6572C31.2923 51.783 30.6788 51.0781 30.2483 50.7706L28.9114 52.6422C28.9035 52.6365 28.9287 52.6544 28.9807 52.7071C29.0291 52.756 29.0883 52.8225 29.1511 52.9041C29.2791 53.0705 29.4013 53.2724 29.4829 53.4841C29.6363 53.8824 29.6328 54.2335 29.3386 54.5931L31.1187 56.0495ZM30.2483 50.7706C30.2495 50.7715 30.2413 50.7656 30.2216 50.7496C30.2029 50.7344 30.1785 50.7139 30.1482 50.6874C30.0872 50.6343 30.0117 50.5656 29.923 50.4826C29.7458 50.3166 29.5327 50.1086 29.3072 49.8838C28.8568 49.435 28.3762 48.9384 28.0721 48.6192L26.4066 50.2054C26.7205 50.5349 27.2155 51.0464 27.6835 51.5129C28.1147 51.9426 28.6219 52.4354 28.9114 52.6422L30.2483 50.7706ZM28.7833 52.5359L32.8617 56.4521L34.4547 54.7931L30.3763 50.8769L28.7833 52.5359ZM33.0997 56.6278C33.4542 56.8248 34.0054 57.0151 34.6255 57.0077C35.2842 56.9998 36.0437 56.7628 36.6387 56.0714L34.8952 54.5712C34.8391 54.6365 34.7922 54.6639 34.7575 54.6786C34.7186 54.6952 34.667 54.707 34.5981 54.7078C34.5273 54.7087 34.4488 54.6975 34.3715 54.6763C34.2924 54.6546 34.2372 54.6286 34.2167 54.6173L33.0997 56.6278ZM36.6387 56.0714C36.8573 55.8173 36.9817 55.7116 37.2702 55.3957C37.4911 55.1537 37.7867 54.8054 37.9635 54.3661C38.1627 53.8709 38.1918 53.3125 37.9642 52.7356C37.7571 52.2105 37.3669 51.7451 36.8793 51.311L35.3498 53.0287C35.708 53.3476 35.8044 53.5282 35.8247 53.5796C35.8311 53.5959 35.8237 53.5832 35.8241 53.5508C35.8245 53.5195 35.8319 53.502 35.8298 53.5074C35.8154 53.5431 35.7605 53.638 35.5715 53.845C35.4811 53.944 35.3869 54.0408 35.2666 54.1664C35.153 54.2852 35.0233 54.4225 34.8952 54.5712L36.6387 56.0714ZM36.8793 51.311C35.5731 50.1479 32.9389 47.3848 31.7651 46.1255L30.0826 47.6937C31.2416 48.9371 33.9494 51.7818 35.3498 53.0287L36.8793 51.311ZM35.2641 52.9439C35.8709 53.6106 36.9023 54.5277 38.0428 55.0522C38.6166 55.3161 39.3014 55.5195 40.0176 55.469C40.7776 55.4154 41.4925 55.0794 42.0489 54.4132L40.2835 52.9389C40.1354 53.1162 40.0038 53.1643 39.8558 53.1747C39.6642 53.1882 39.3798 53.1355 39.0039 52.9626C38.245 52.6136 37.455 51.9341 36.965 51.3957L35.2641 52.9439ZM42.0489 54.4132C43.0347 53.2328 43.1037 51.9768 42.6737 50.9338C42.2851 49.9912 41.5329 49.3103 40.9748 48.9533L39.7355 50.8908C40.0348 51.0823 40.3925 51.4349 40.5473 51.8104C40.6173 51.9801 40.6389 52.1358 40.6166 52.2879C40.5946 52.4378 40.5193 52.6565 40.2835 52.9389L42.0489 54.4132ZM41.1511 49.092L34.9408 43.1367L33.3489 44.7967L39.5592 50.7521L41.1511 49.092ZM39.6489 50.8296C40.1496 51.2193 40.9897 51.7108 41.9278 51.8911C42.9104 52.08 44.1543 51.9358 45.0364 50.7959L43.2174 49.3883C43.0311 49.6291 42.7952 49.7158 42.362 49.6325C41.8843 49.5407 41.3727 49.2568 41.0614 49.0145L39.6489 50.8296ZM43.7397 45.557C43.4654 45.3249 42.2075 44.0896 40.6801 42.5689C39.1805 41.0758 37.4843 39.3714 36.38 38.2576L34.7467 39.8769C35.8531 40.993 37.5531 42.7011 39.0573 44.1988C40.5338 45.6688 41.8873 47.0024 42.254 47.3127L43.7397 45.557ZM36.3418 38.2208C35.8297 37.7498 34.9523 37.2294 33.8696 37.0754C32.7398 36.9146 31.4365 37.1629 30.196 38.1769L31.6517 39.9576C32.3763 39.3653 33.0289 39.2789 33.5456 39.3524C34.1095 39.4326 34.5692 39.7154 34.7848 39.9137L36.3418 38.2208ZM30.2668 38.1234L27.6348 39.9556L28.9488 41.8433L31.5809 40.0111L30.2668 38.1234ZM27.6372 39.9539C27.7029 39.9084 27.5688 40.0095 27.1399 40.0405C26.745 40.0691 26.1497 40.0327 25.3549 39.7969L24.7007 42.0019C25.7337 42.3084 26.6072 42.3851 27.3058 42.3345C27.9703 42.2865 28.5543 42.1164 28.9464 41.8449L27.6372 39.9539ZM25.1823 39.7598C25.1313 39.7529 25.0446 39.7352 24.9438 39.7019C24.8434 39.6687 24.7507 39.627 24.6763 39.5816C24.5161 39.4837 24.5558 39.4493 24.5628 39.5081L22.2789 39.78C22.3864 40.6824 22.9827 41.2422 23.4773 41.5444C23.9684 41.8443 24.5046 41.989 24.8733 42.039L25.1823 39.7598ZM24.5628 39.5081C24.5927 39.7594 24.4953 39.8763 24.5686 39.7289C24.616 39.6335 24.7077 39.4838 24.8575 39.2778C25.154 38.87 25.5937 38.3554 26.1143 37.7917C27.1499 36.6704 28.4185 35.4481 29.2703 34.6662L27.715 32.9718C26.8344 33.7801 25.5169 35.0485 24.4246 36.2312C23.8813 36.8195 23.3715 37.4104 22.9972 37.9254C22.8115 38.1807 22.6375 38.4469 22.5093 38.7046C22.4069 38.9103 22.2239 39.3178 22.2789 39.78L24.5628 39.5081ZM31.9012 32.0681C31.901 32.0683 31.9063 32.0644 31.9182 32.0574C31.9299 32.0504 31.9466 32.0411 31.9685 32.0304C32.0128 32.0089 32.0739 31.9835 32.1523 31.9587C32.3091 31.9091 32.5245 31.8653 32.7945 31.8556C33.3282 31.8366 34.0901 31.9506 35.0387 32.4369L36.088 30.3902C33.5515 29.0898 31.4729 29.527 30.5372 30.2163L31.9012 32.0681ZM35.0387 32.4369C37.2495 33.5703 38.2839 34.2644 38.4714 34.4144L39.9082 32.6184C39.5304 32.3162 38.3229 31.536 36.088 30.3902L35.0387 32.4369ZM38.5323 34.4599C39.1686 34.9033 40.2021 35.3793 41.3992 35.4241C42.6491 35.4709 44.0216 35.0409 45.186 33.7511L43.4787 32.2099C42.798 32.9639 42.0967 33.1486 41.4853 33.1257C40.8211 33.1009 40.206 32.8229 39.8473 32.5729L38.5323 34.4599ZM18.7766 31.9226C18.7704 31.9612 18.7576 32.0315 18.736 32.1397L20.9916 32.5896C21.0147 32.474 21.0344 32.3691 21.0477 32.286L18.7766 31.9226ZM18.736 32.1397C18.4118 33.7652 16.782 40.6872 15.7524 45.018L17.99 45.55C19.0127 41.2484 20.6567 34.2684 20.9916 32.5896L18.736 32.1397ZM29.2983 34.6397L30.6616 33.3012L29.0503 31.66L27.687 32.9984L29.2983 34.6397ZM30.6616 33.3012L32.0249 31.9628L30.4136 30.3216L29.0503 31.66L30.6616 33.3012ZM19.8505 33.5145L29.8426 33.6305L29.8693 31.3307L19.8772 31.2147L19.8505 33.5145ZM45.2768 32.0608C45.2768 32.0609 45.2767 32.0493 45.2795 32.0277C45.2823 32.0068 45.2871 31.981 45.2949 31.9525C45.311 31.894 45.3355 31.8382 45.3666 31.7918C45.3959 31.748 45.4315 31.7113 45.4789 31.6811C45.5252 31.6516 45.6079 31.6119 45.7526 31.5912L45.4274 29.3144C44.4997 29.4469 43.8489 29.9246 43.4556 30.5119C43.0899 31.0581 42.9709 31.658 42.977 32.0929L45.2768 32.0608ZM45.7526 31.5912C47.0057 31.4122 48.4762 31.0504 49.0592 30.8915L48.4544 28.6725C47.9147 28.8196 46.5468 29.1544 45.4274 29.3144L45.7526 31.5912ZM48.912 30.9215C48.8901 30.9244 48.9008 30.9205 48.9309 30.9263C48.9571 30.9314 48.9822 30.9409 49.0037 30.9544C49.0219 30.9658 49.0485 30.9865 49.0784 31.0324C49.1092 31.0795 49.1576 31.175 49.1899 31.3504L51.4519 30.9341C51.2861 30.0332 50.8325 29.386 50.2249 29.0053C49.6595 28.6511 49.0473 28.5818 48.6016 28.6425L48.912 30.9215ZM49.1899 31.3504C49.4198 32.5997 51.2708 41.2883 52.162 45.4511L54.411 44.9696C53.5134 40.7769 51.6739 32.1404 51.4519 30.9341L49.1899 31.3504ZM52.1813 45.5281C52.1845 45.5392 52.1929 45.5787 52.1931 45.6306C52.1933 45.6812 52.1856 45.7163 52.1791 45.7342C52.1763 45.7419 52.1745 45.7444 52.175 45.7437C52.1757 45.7426 52.1768 45.7415 52.1765 45.7418C52.1763 45.742 52.1698 45.7481 52.1519 45.7575C52.1336 45.7671 52.0997 45.7821 52.0442 45.7965L52.6224 48.0227C53.5299 47.787 54.0949 47.2017 54.3427 46.5144C54.564 45.9008 54.5061 45.2905 54.3918 44.8926L52.1813 45.5281ZM52.0442 45.7965C50.9762 46.0739 49.394 46.4721 48.7357 46.6367L49.2935 48.868C49.9532 48.7031 51.5438 48.3028 52.6224 48.0227L52.0442 45.7965ZM48.6769 46.653C48.7003 46.6458 48.699 46.6495 48.6846 46.6486C48.6747 46.648 48.6711 46.6459 48.6707 46.6457C48.6704 46.6456 48.6671 46.6439 48.6608 46.6381C48.6544 46.6324 48.6413 46.6192 48.6237 46.5934C48.5888 46.542 48.5276 46.4267 48.4817 46.2035L46.2288 46.6662C46.423 47.6117 46.8958 48.304 47.5844 48.673C48.2266 49.0172 48.8961 48.9918 49.3523 48.8516L48.6769 46.653ZM48.4817 46.2035C48.1961 44.8129 46.2043 36.0244 45.2482 31.8217L43.0055 32.3319C43.9663 36.5554 45.9495 45.3068 46.2288 46.6662L48.4817 46.2035ZM45.0364 50.7959C45.5803 50.093 45.8312 49.3409 45.7696 48.5779C45.7104 47.8449 45.3745 47.251 45.0347 46.814L43.2191 48.2259C43.4025 48.4617 43.4668 48.6366 43.477 48.7629C43.4848 48.859 43.474 49.0566 43.2174 49.3883L45.0364 50.7959ZM45.0347 46.814C44.5933 46.2463 44.0176 45.7921 43.7397 45.557L42.254 47.3127C42.618 47.6208 42.9613 47.8944 43.2191 48.2259L45.0347 46.814ZM44.4933 48.61L47.7216 47.5249L46.9889 45.3448L43.7605 46.4299L44.4933 48.61ZM30.9239 20.724H38.5169V18.424H30.9239V20.724ZM38.5169 21.882H30.9239V24.182H38.5169V21.882ZM30.9239 27.4603H38.5169V25.1603H30.9239V27.4603ZM24.7712 28.5306C26.1049 28.3776 27.058 27.8456 27.5934 27.023C28.1043 26.238 28.1088 25.377 27.9501 24.7952L25.7312 25.4003C25.7521 25.4772 25.7522 25.6356 25.6658 25.7683C25.6039 25.8633 25.3669 26.1471 24.509 26.2456L24.7712 28.5306ZM27.9863 25.1974C28.0439 24.5357 27.824 23.6724 27.1186 22.9837C26.402 22.2842 25.3099 21.882 23.8318 21.882V24.182C24.9044 24.182 25.3468 24.4683 25.5119 24.6295C25.6007 24.7162 25.6465 24.8005 25.6704 24.8683C25.6828 24.9033 25.6895 24.9344 25.6927 24.959C25.696 24.9844 25.695 24.9982 25.695 24.9981L27.9863 25.1974ZM23.8318 21.882C23.3569 21.882 23.196 21.7744 23.1661 21.7508C23.1515 21.7393 23.113 21.7106 23.0928 21.5708C23.0698 21.4114 23.0854 21.1767 23.1599 20.8858C23.2323 20.6028 23.3456 20.3245 23.4601 20.1041L21.4191 19.0439C21.0781 19.7002 20.6614 20.8262 20.8164 21.8996C20.9003 22.4803 21.1626 23.0999 21.7418 23.5567C22.3056 24.0014 23.0312 24.182 23.8318 24.182V21.882ZM23.3231 20.3102C23.5459 20.0428 23.9617 19.7638 24.4042 19.7511L24.3381 17.4521C23.0461 17.4892 22.0617 18.2312 21.5562 18.8378L23.3231 20.3102ZM24.4042 19.7511C24.7197 19.7421 25.2649 19.8598 25.9665 20.6805L27.7148 19.186C26.6669 17.9601 25.4967 17.4188 24.3381 17.4521L24.4042 19.7511ZM25.5211 18.6016V16.61H23.2211V18.6016H25.5211ZM20.7507 25.9959C20.7507 26.5939 21.0166 27.3171 21.6709 27.851C22.3335 28.3917 23.2702 28.6422 24.4508 28.5602L24.2915 26.2658C23.5042 26.3204 23.2058 26.1349 23.125 26.069C23.0361 25.9965 23.0507 25.9428 23.0507 25.9959L20.7507 25.9959ZM24.4508 28.5602C24.5554 28.553 24.6622 28.5431 24.7712 28.5306L24.509 26.2456C24.4329 26.2543 24.3604 26.261 24.2915 26.2658L24.4508 28.5602ZM23.2211 27.413V29.5277H25.5211V27.413H23.2211ZM42.0218 19.1388C42.5008 19.1388 42.889 19.527 42.889 20.006H40.589C40.589 20.7973 41.2305 21.4388 42.0218 21.4388V19.1388ZM15.1785 12.2169C14.3842 12.2169 13.7414 12.8632 13.7457 13.6575L16.0457 13.6451C16.0483 14.1258 15.6593 14.5169 15.1785 14.5169L15.1785 12.2169Z" fill="#51B6EF"/>
</svg>
