<svg width="64" height="65" viewBox="0 0 64 65" fill="none" xmlns="http://www.w3.org/2000/svg">
<rect y="0.726807" width="64" height="64" rx="32" fill="#F2F5F6"/>
<path d="M40.0375 38.2978C41.004 38.2978 41.7875 37.5143 41.7875 36.5478C41.7875 35.5813 41.004 34.7978 40.0375 34.7978V38.2978ZM19.9626 36.5478L18.6473 35.3935C18.1941 35.91 18.085 36.6439 18.3685 37.2698C18.652 37.8957 19.2755 38.2978 19.9626 38.2978V36.5478ZM34.6767 19.7808H36.4267C36.4267 19.0522 35.9752 18.3998 35.2934 18.143C34.6115 17.8863 33.8419 18.0788 33.3613 18.6265L34.6767 19.7808ZM32.9267 45.6728C32.9267 46.6393 33.7102 47.4228 34.6767 47.4228C35.6432 47.4228 36.4267 46.6393 36.4267 45.6728H32.9267ZM40.0375 34.7978H19.9626V38.2978H40.0375V34.7978ZM21.278 37.7021L35.992 20.935L33.3613 18.6265L18.6473 35.3935L21.278 37.7021ZM32.9267 19.7808V45.6728H36.4267V19.7808H32.9267Z" fill="#51B6EF"/>
</svg>
