<svg width="65" height="65" viewBox="0 0 65 65" fill="none" xmlns="http://www.w3.org/2000/svg">
<rect x="0.5" y="0.726807" width="64" height="64" rx="32" fill="#F2F5F6"/>
<path fill-rule="evenodd" clip-rule="evenodd" d="M45.0924 49.4325C47.6027 47.0155 49.0763 43.7457 49.2172 40.2412C51.3165 39.9583 52.9408 38.1561 52.9408 35.9805V33.5965C52.9408 32.0361 52.1053 30.6674 50.8584 29.9135C51.9061 29.3435 52.6187 28.2326 52.6187 26.9583C52.6187 25.3606 51.4969 24.0218 50.0003 23.6823C49.5918 22.4175 49.0123 21.0912 48.2968 19.7989C47.9734 19.2155 47.2385 19.0046 46.6545 19.3273C46.0709 19.6505 45.8598 20.3859 46.1829 20.9696C46.6678 21.845 47.0827 22.7335 47.4119 23.5967H17.5323C19.4627 18.5178 24.6366 11.7656 32.4666 11.5523C37.3826 11.682 40.928 14.3854 43.0372 16.6321C43.4939 17.119 44.2585 17.1427 44.7448 16.6861C45.2314 16.2294 45.2554 15.4648 44.7988 14.9784C41.3172 11.2698 37.0662 9.24938 32.5054 9.13595C32.4792 9.13546 32.4536 9.13562 32.4268 9.1366L32.4245 9.13676C27.9542 9.25182 23.7717 11.205 20.3287 14.7862C17.9127 17.2992 15.9394 20.5771 14.9388 23.6979C13.4728 24.0597 12.3811 25.3823 12.3811 26.9583C12.3811 28.2326 13.0937 29.3435 14.1412 29.9134C12.8943 30.6673 12.0588 32.0359 12.0588 33.5963V35.9803C12.0588 38.1516 13.6766 39.951 15.7699 40.2395C15.7702 40.591 15.7704 40.8679 15.7707 41.0489C15.7746 44.3165 17.2378 47.3635 19.7853 49.4088L19.8473 49.4585L21.9595 51.1543L23.8268 52.6534L26.2435 54.5933L26.9624 55.1705C27.8842 55.9104 29.0427 56.318 30.2243 56.318H34.7755C35.9576 56.318 37.1161 55.9104 38.0375 55.1703L38.7566 54.593L41.1723 52.6523L43.0385 51.1536L45.0924 49.4325ZM49.2312 37.7697C49.9813 37.521 50.5243 36.813 50.5244 35.9803V33.5965C50.5244 32.7654 49.9839 32.0585 49.2357 31.8085L49.2353 32.3667L49.2353 32.3829L49.2349 32.9357L49.2352 32.9421L49.2356 32.948L49.2358 32.9516L49.2362 32.9584L49.2362 32.9627C49.2362 32.9721 49.2349 32.981 49.2348 32.9905C49.2336 34.6877 49.2323 36.4568 49.2312 37.7697ZM14.4752 33.5963V35.9803C14.4752 36.813 15.0178 37.5209 15.7681 37.7697L15.7676 37.0347L15.7676 37.0066L15.7648 32.9923C15.7648 32.9876 15.7644 32.983 15.7641 32.9784C15.7637 32.9732 15.7634 32.968 15.7634 32.9627C15.7634 32.9575 15.7637 32.9524 15.7641 32.9474C15.7644 32.9429 15.7648 32.9385 15.7648 32.9339L15.7648 32.8952L15.764 31.8084C15.0158 32.0583 14.4752 32.7652 14.4752 33.5963ZM14.7973 26.9583C14.7973 27.4797 15.2214 27.9038 15.7426 27.9038H49.2567C49.778 27.9038 50.2022 27.4797 50.2022 26.9583C50.2022 26.437 49.778 26.0129 49.2567 26.0129H49.0822L49.0799 26.013L49.0787 26.0131L49.075 26.0134L15.7426 26.0129C15.2214 26.0129 14.7974 26.437 14.7973 26.9583ZM18.1792 30.32L18.1799 31.3433C18.18 31.4782 18.1802 31.6158 18.1802 31.7544H46.8193L46.8196 31.1579L46.8201 30.503L46.8202 30.3244V30.32H18.1792ZM42.4913 36.6648V34.8743H35.6613V36.6648C35.6613 37.1874 36.0864 37.6127 36.6092 37.6127H41.5434C42.0661 37.6127 42.4913 37.1876 42.4913 36.6648ZM29.3341 36.6648V34.8743H22.5039V36.6648C22.5039 37.1874 22.929 37.6127 23.4518 37.6127H28.3862C28.9088 37.6127 29.3341 37.1876 29.3341 36.6648ZM18.1818 34.1709L18.1852 39.0722C18.1854 39.3622 18.1857 39.631 18.1862 39.8746L23.3707 40.7232C28.928 41.6328 34.5689 41.6646 40.1369 40.8168L46.8105 39.8008C46.8106 39.7862 46.8112 39.7717 46.8118 39.7571L46.8126 39.7389C46.813 39.7282 46.8132 39.7175 46.8132 39.7068L46.8133 39.6689L46.8141 38.9911C46.815 37.9626 46.8165 36.0989 46.8178 34.1709H44.9078V36.6649C44.9078 38.52 43.3986 40.0292 41.5436 40.0292H36.6094C34.7544 40.0292 33.2451 38.52 33.2451 36.6649V34.1709H31.7504V36.6649C31.7504 38.52 30.2412 40.0292 28.3862 40.0292H23.4518C21.5967 40.0292 20.0875 38.52 20.0875 36.6649V34.1709H18.1818ZM22.98 43.1079L18.2907 42.3402C18.6094 44.3707 19.6652 46.2137 21.2982 47.5247L22.8637 48.7815L22.8778 48.7929L28.4749 53.2864C28.9691 53.6832 29.5905 53.9018 30.2241 53.9018H34.7753C35.4091 53.9018 36.0304 53.6832 36.5244 53.2864L42.1213 48.7918L42.1277 48.7866L42.1342 48.7815L42.653 48.3648C44.6036 46.7984 45.9385 44.6645 46.5055 42.2914L40.5005 43.2057C37.6949 43.6328 34.8717 43.8465 32.0489 43.8465C29.0178 43.8465 25.9872 43.6003 22.98 43.1079Z" fill="#F44336"/>
</svg>
