<svg width="120" height="28" viewBox="0 0 120 28" fill="none" xmlns="http://www.w3.org/2000/svg">
<path fill-rule="evenodd" clip-rule="evenodd" d="M16.8827 25.3908V10.5149H3.76643L3.56669 16.5655C3.5223 17.7623 3.44833 18.7301 3.34476 19.4689C3.24119 20.2076 3.04145 20.7987 2.74554 21.2419C2.46442 21.6852 2.05015 21.9068 1.50271 21.9068C1.31037 21.9068 1.11803 21.8847 0.925684 21.8403L0.659363 26.0292C1.44353 26.2213 2.18331 26.3173 2.8787 26.3173C4.25468 26.3173 5.31257 25.9258 6.05234 25.1427C6.79212 24.3448 7.30997 23.2366 7.60588 21.8182C7.90179 20.3997 8.07933 18.5823 8.13852 16.366L8.1829 14.5708H11.7338V25.903C13.3815 25.7201 15.1021 25.5476 16.8827 25.3908ZM28.1299 24.6835C26.1439 24.7571 24.1928 24.8576 22.2899 24.9794V10.5149H27.4387V18.5823L32.7873 10.5149H37.7142V24.5574C35.9856 24.5367 34.2667 24.5409 32.5654 24.567V17.9839L28.1299 24.6835ZM48.2413 25.0151C46.4989 24.8798 44.7504 24.7763 43.0037 24.7012V10.5149H48.2413V16.2995H49.8393L53.1461 10.5149H58.6056L53.9894 18.0504L58.5834 26.0292H58.2088C56.6586 25.883 55.1482 25.723 53.6862 25.5485C53.2397 25.4952 52.7923 25.4443 52.344 25.3956L49.7061 20.4219H48.2413V25.0151ZM106.135 27.1046C104.579 27.1538 102.978 27.1962 101.341 27.231V21.9733H101.785C102.688 21.9733 103.324 21.4045 103.694 20.2667C104.064 19.129 104.301 17.452 104.404 15.2357L104.582 10.5149H117.72V21.9733H119.762V26.4241C118.278 26.5328 116.674 26.6348 114.968 26.7285V26.0292H106.135V27.1046ZM76.2741 19.2916C75.8155 18.671 75.1497 18.2056 74.2767 17.8953C74.9129 17.5407 75.4012 17.0826 75.7415 16.5211C76.0966 15.9597 76.2741 15.3095 76.2741 14.5708C76.2741 13.2853 75.7415 12.288 74.6762 11.5787C73.6257 10.8695 72.1388 10.5149 70.2153 10.5149H62.3367V26.0292H70.637C72.6492 26.0292 74.2027 25.6302 75.2976 24.8324C76.4073 24.0197 76.9621 22.9189 76.9621 21.53C76.9621 20.6435 76.7328 19.8973 76.2741 19.2916ZM69.7049 16.4768H67.4856V14.1718H69.7049C70.563 14.1718 70.9921 14.5634 70.9921 15.3465C70.9921 16.1 70.563 16.4768 69.7049 16.4768ZM71.6801 21.1311C71.6801 21.9585 71.251 22.3722 70.3929 22.3722H67.4856V19.9343H70.3929C71.251 19.9343 71.6801 20.3332 71.6801 21.1311ZM86.6421 10.5149H81.4932V26.0292H86.4423L91.7687 17.9839V26.0292H96.9176V10.5149H91.9906L86.6421 18.5823V10.5149ZM108.599 19.491C108.776 18.442 108.895 17.1713 108.954 15.6789L108.998 14.5708H112.571V21.9733H107.778C108.147 21.3527 108.421 20.5253 108.599 19.491Z" fill="#3EAEED"/>
<path d="M50.5646 0.220232C50.5328 0.172938 50.4909 0.134406 50.4424 0.107826C50.3939 0.0812465 50.3402 0.0673828 50.2856 0.0673828C50.2311 0.0673828 50.1774 0.0812465 50.1289 0.107826C50.0803 0.134406 50.0385 0.172938 50.0067 0.220232L48.1621 2.96905C47.8825 3.3858 47.716 3.87675 47.6808 4.38796C47.6456 4.89917 47.743 5.41086 47.9625 5.86678C48.1819 6.32271 48.5149 6.70523 48.9247 6.97231C49.3346 7.2394 49.8055 7.3807 50.2856 7.3807C50.7658 7.3807 51.2367 7.2394 51.6465 6.97231C52.0564 6.70523 52.3893 6.32271 52.6088 5.86678C52.8282 5.41086 52.9257 4.89917 52.8905 4.38796C52.8553 3.87675 52.6887 3.3858 52.4091 2.96905L50.5646 0.220232Z" fill="#3EAEED"/>
</svg>
