<svg width="38" height="38" viewBox="-10 -10 38 38" fill="none" xmlns="http://www.w3.org/2000/svg">
<path d="M19.2337 17.3692L17.7314 14.9842C17.0375 13.8834 16.6709 12.6225 16.6709 11.3392V9.25C16.6709 6.6125 14.8229 4.38168 12.2959 3.6625V2.16668C12.2959 1.2475 11.511 0.5 10.5459 0.5C9.58078 0.5 8.79591 1.2475 8.79591 2.16668V3.6625C6.26896 4.38168 4.42098 6.6125 4.42098 9.25V11.3392C4.42098 12.6225 4.05435 13.8825 3.36135 14.9834L1.85901 17.3684C1.77763 17.4975 1.77587 17.6575 1.85376 17.7884C1.93165 17.9192 2.07602 18 2.23352 18H18.8583C19.0158 18 19.1611 17.9192 19.239 17.7892C19.3168 17.6592 19.3142 17.4975 19.2337 17.3692Z
M7.79065 18.8334C8.28415 19.8151 9.3289 20.5001 10.546 20.5001C11.7631 20.5001 12.8079 19.8151 13.3014 18.8334H7.79065V18.8334Z" fill="#9DAFBD"/>
</svg>
