<svg width="65" height="65" viewBox="0 0 65 65" fill="none" xmlns="http://www.w3.org/2000/svg">
<rect x="0.929199" y="0.140137" width="64" height="64" rx="32" fill="#F2F5F6"/>
<path fill-rule="evenodd" clip-rule="evenodd" d="M38.8897 62.1807H38.8648C42.2982 59.6224 43.7061 55.1521 42.3585 51.088C41.0108 47.0239 37.2109 44.2806 32.9292 44.2806C28.6475 44.2806 24.8475 47.0239 23.4999 51.088C22.1522 55.1521 23.5601 59.6224 26.9935 62.1807L31.8859 63.0173H34.7393C34.8419 63.0173 37.549 62.4596 38.8897 62.1807ZM40.8765 54.2333C40.8765 49.8441 37.3184 46.286 32.9292 46.286C28.542 46.2909 24.9867 49.8462 24.9818 54.2333C24.9818 58.6225 28.54 62.1807 32.9292 62.1807C37.3184 62.1807 40.8765 58.6225 40.8765 54.2333Z" fill="#F44336"/>
<path fill-rule="evenodd" clip-rule="evenodd" d="M32.9283 55.2264C33.4103 55.2269 33.8224 55.5732 33.9058 56.0479C33.9892 56.5227 33.7198 56.9887 33.2668 57.1534C32.8139 57.3181 32.308 57.1339 32.0671 56.7165C31.8955 56.3977 31.564 56.1975 31.202 56.1939C30.8399 56.1904 30.5046 56.3841 30.3269 56.6995C30.1491 57.0149 30.157 57.402 30.3474 57.7099C30.7081 58.3147 31.2712 58.7722 31.9369 59.0014V59.2001C31.9369 59.7487 32.3817 60.1935 32.9303 60.1935C33.479 60.1935 33.9238 59.7487 33.9238 59.2001V59.0173C35.2916 58.5355 36.1123 57.1372 35.8661 55.708C35.6199 54.2789 34.3786 53.2358 32.9283 53.2396C32.4464 53.2391 32.0343 52.8927 31.9509 52.418C31.8675 51.9433 32.1369 51.4772 32.5898 51.3125C33.0428 51.1478 33.5487 51.332 33.7896 51.7494C33.9612 52.0683 34.2927 52.2685 34.6547 52.272C35.0167 52.2756 35.3521 52.0819 35.5298 51.7665C35.7076 51.4511 35.6997 51.0639 35.5092 50.756C35.1491 50.1516 34.5868 49.6942 33.9218 49.4646V49.2659C33.9218 48.7172 33.477 48.2725 32.9283 48.2725C32.3797 48.2725 31.9349 48.7172 31.9349 49.2659V49.4487C30.5674 49.9303 29.7467 51.3281 29.9924 52.7569C30.2381 54.1858 31.4785 55.2291 32.9283 55.2264Z" fill="#F44336"/>
<path d="M42.8598 54.2102C42.8598 51.676 41.8909 49.2377 40.1515 47.3946C38.4122 45.5516 36.034 44.4433 33.504 44.2968C30.974 44.1502 28.4838 44.9765 26.5432 46.6064C24.6027 48.2362 23.3587 50.5463 23.0661 53.0636C22.7735 55.5808 23.4544 58.1147 24.9693 60.1463C26.4842 62.1778 28.7185 63.5533 31.2146 63.991C33.7108 64.4287 36.2798 63.8955 38.3955 62.5006C40.5113 61.1057 42.0137 58.9547 42.595 56.488L40.6612 56.0323C40.1962 58.0054 38.9944 59.726 37.3019 60.8419C35.6095 61.9577 33.5545 62.3842 31.5578 62.0341C29.5611 61.6839 27.7738 60.5837 26.562 58.9586C25.3502 57.3335 24.8056 55.3066 25.0396 53.293C25.2737 51.2794 26.2688 49.4315 27.8211 48.1277C29.3733 46.824 31.3653 46.163 33.3891 46.2803C35.4129 46.3975 37.3152 47.284 38.7066 48.7583C40.0979 50.2326 40.873 52.183 40.873 54.2102H42.8598Z" fill="#F44336"/>
<path fill-rule="evenodd" clip-rule="evenodd" d="M13.4882 28.7653H13.4732C15.5537 27.2151 16.4068 24.5062 15.5902 22.0435C14.7736 19.5808 12.4709 17.9185 9.87638 17.9185C7.28182 17.9185 4.97917 19.5808 4.16255 22.0435C3.34592 24.5062 4.19906 27.2151 6.27956 28.7653L9.24422 29.2723H10.9733C11.0354 29.2723 12.6758 28.9343 13.4882 28.7653ZM14.6922 23.9495C14.6922 21.2898 12.5361 19.1337 9.87638 19.1337C7.21791 19.1366 5.06354 21.291 5.06055 23.9495C5.06055 26.6092 7.21667 28.7653 9.87638 28.7653C12.5361 28.7653 14.6922 26.6092 14.6922 23.9495Z" fill="#F44336"/>
<path fill-rule="evenodd" clip-rule="evenodd" d="M9.87583 24.5511C10.1679 24.5514 10.4176 24.7613 10.4681 25.049C10.5187 25.3366 10.3554 25.619 10.0809 25.7188C9.80647 25.8186 9.49995 25.707 9.35392 25.4541C9.24995 25.2609 9.0491 25.1396 8.82972 25.1374C8.61033 25.1353 8.40715 25.2526 8.29941 25.4438C8.19168 25.6349 8.19646 25.8695 8.31189 26.0561C8.53042 26.4225 8.87164 26.6998 9.27506 26.8386V26.959C9.27506 27.2915 9.54457 27.561 9.87703 27.561C10.2095 27.561 10.479 27.2915 10.479 26.959V26.8483C11.3079 26.5563 11.8052 25.709 11.656 24.843C11.5068 23.977 10.7546 23.3449 9.87583 23.3472C9.58377 23.3469 9.33405 23.137 9.28352 22.8493C9.23299 22.5617 9.39623 22.2793 9.67071 22.1795C9.94519 22.0796 10.2517 22.1913 10.3977 22.4442C10.5017 22.6374 10.7026 22.7587 10.9219 22.7609C11.1413 22.763 11.3445 22.6457 11.4522 22.4545C11.56 22.2634 11.5552 22.0288 11.4398 21.8422C11.2215 21.476 10.8808 21.1988 10.4778 21.0597V20.9393C10.4778 20.6068 10.2083 20.3373 9.87583 20.3373C9.54337 20.3373 9.27385 20.6068 9.27385 20.9393V21.05C8.4452 21.3419 7.94788 22.1889 8.09675 23.0547C8.24563 23.9206 8.99728 24.5528 9.87583 24.5511Z" fill="#F44336"/>
<path d="M15.8953 23.9353C15.8953 22.3997 15.3082 20.9221 14.2542 19.8053C13.2002 18.6885 11.7591 18.0169 10.226 17.9281C8.69296 17.8393 7.18394 18.34 6.00804 19.3276C4.83214 20.3153 4.07834 21.7151 3.90103 23.2405C3.72371 24.7659 4.1363 26.3013 5.05429 27.5324C5.97228 28.7634 7.3262 29.5969 8.83876 29.8621C10.3513 30.1274 11.908 29.8043 13.1901 28.959C14.4722 28.1137 15.3826 26.8103 15.7349 25.3156L14.563 25.0394C14.2812 26.2351 13.553 27.2777 12.5274 27.9539C11.5019 28.63 10.2566 28.8885 9.0467 28.6763C7.83677 28.4641 6.75374 27.7974 6.01943 26.8127C5.28511 25.8279 4.95507 24.5997 5.09691 23.3795C5.23875 22.1593 5.84173 21.0396 6.78236 20.2495C7.72298 19.4595 8.93007 19.059 10.1564 19.13C11.3827 19.2011 12.5355 19.7383 13.3786 20.6316C14.2217 21.525 14.6914 22.7069 14.6914 23.9353H15.8953Z" fill="#F44336"/>
<path fill-rule="evenodd" clip-rule="evenodd" d="M23.6942 44.4821H23.6754C26.2699 42.5489 27.3338 39.1708 26.3155 36.0996C25.2971 33.0285 22.4255 30.9554 19.1899 30.9554C15.9543 30.9554 13.0828 33.0285 12.0644 36.0996C11.046 39.1708 12.1099 42.5489 14.7045 44.4821L18.4016 45.1143H20.5578C20.6354 45.1143 22.681 44.6929 23.6942 44.4821ZM25.1956 38.4765C25.1956 35.1596 22.5068 32.4708 19.1899 32.4708C15.8746 32.4745 13.188 35.1612 13.1843 38.4765C13.1843 41.7933 15.8731 44.4821 19.1899 44.4821C22.5068 44.4821 25.1956 41.7933 25.1956 38.4765Z" fill="#F44336"/>
<path fill-rule="evenodd" clip-rule="evenodd" d="M19.1892 39.2268C19.5534 39.2272 19.8648 39.4889 19.9279 39.8476C19.9909 40.2064 19.7873 40.5586 19.445 40.683C19.1027 40.8075 18.7204 40.6683 18.5383 40.3529C18.4087 40.1119 18.1582 39.9606 17.8846 39.9579C17.611 39.9553 17.3577 40.1016 17.2233 40.34C17.089 40.5783 17.0949 40.8709 17.2389 41.1036C17.5114 41.5606 17.9369 41.9063 18.44 42.0795V42.2296C18.44 42.6442 18.7761 42.9803 19.1907 42.9803C19.6053 42.9803 19.9414 42.6442 19.9414 42.2296V42.0915C20.9751 41.7274 21.5953 40.6708 21.4092 39.5908C21.2231 38.5108 20.2851 37.7226 19.1892 37.7254C18.825 37.725 18.5136 37.4633 18.4505 37.1046C18.3875 36.7458 18.5911 36.3936 18.9334 36.2692C19.2757 36.1447 19.658 36.2839 19.8401 36.5993C19.9697 36.8403 20.2202 36.9916 20.4938 36.9943C20.7674 36.9969 21.0207 36.8506 21.1551 36.6122C21.2894 36.3739 21.2835 36.0813 21.1395 35.8486C20.8674 35.3919 20.4424 35.0462 19.9399 34.8727V34.7226C19.9399 34.308 19.6038 33.9719 19.1892 33.9719C18.7746 33.9719 18.4385 34.308 18.4385 34.7226V34.8607C17.4051 35.2247 16.7849 36.2809 16.9706 37.3607C17.1562 38.4405 18.0936 39.2289 19.1892 39.2268Z" fill="#F44336"/>
<path d="M26.6958 38.4588C26.6958 36.5438 25.9636 34.7012 24.6492 33.3085C23.3348 31.9157 21.5377 31.0782 19.6258 30.9675C17.714 30.8567 15.8322 31.4811 14.3657 32.7128C12.8993 33.9444 11.9593 35.6901 11.7381 37.5924C11.517 39.4946 12.0315 41.4094 13.1763 42.9446C14.3211 44.4798 16.0096 45.5192 17.8958 45.85C19.7821 46.1807 21.7234 45.7778 23.3223 44.7237C24.9211 43.6696 26.0564 42.0441 26.4957 40.1802L25.0344 39.8357C24.683 41.3268 23.7748 42.627 22.4959 43.4702C21.2169 44.3134 19.664 44.6357 18.1551 44.3712C16.6463 44.1066 15.2957 43.2751 14.3799 42.0471C13.4642 40.819 13.0526 39.2874 13.2295 37.7657C13.4064 36.2441 14.1583 34.8477 15.3314 33.8624C16.5044 32.8772 18.0097 32.3777 19.539 32.4663C21.0683 32.5549 22.5059 33.2249 23.5573 34.3389C24.6087 35.453 25.1944 36.9269 25.1944 38.4588H26.6958Z" fill="#F44336"/>
<path fill-rule="evenodd" clip-rule="evenodd" d="M56.0846 47.1223L57.6997 41.1686C57.8379 40.6679 57.6871 40.1395 57.3138 39.8164C56.9405 39.4933 56.4133 39.4349 55.9647 39.667L54.2731 40.5413L49.1371 28.9624C48.3024 27.0896 46.1511 26.3335 44.3283 27.2723L39.1218 29.9624C38.6664 30.1975 38.1285 30.0085 37.9203 29.5401L30.1011 11.9343C29.7014 11.0335 28.9699 10.3492 28.0677 10.0321C27.1656 9.71503 26.1668 9.79123 25.2914 10.2439L22.4182 11.7284C21.963 11.963 21.4258 11.7742 21.2174 11.3064L18.6118 5.45564C18.1905 4.52861 17.1241 4.15381 16.2154 4.61343C15.7761 4.83532 15.434 5.22959 15.266 5.70759C15.098 6.18559 15.1182 6.70721 15.3221 7.15519L18.293 13.8602C18.6928 14.7607 19.4241 15.4448 20.3261 15.7618C21.228 16.0788 22.2266 16.0027 23.1018 15.5503L26.7989 13.6396L34.9976 32.0914C35.3974 32.992 36.1288 33.6761 37.0307 33.9931C37.9326 34.31 38.9312 34.234 39.8065 33.7815L45.0096 31.0953C45.2285 30.9821 45.4782 30.9631 45.7037 31.0424C45.9292 31.1216 46.1121 31.2927 46.212 31.5179L50.9777 42.249L49.2864 43.1224C48.8391 43.3532 48.5522 43.8313 48.5522 44.3456C48.5523 44.86 48.8392 45.316 49.2865 45.5125L54.6082 47.892C54.8927 48.0146 55.2185 48.0003 55.5016 47.8527C55.7847 47.7051 55.9973 47.4387 56.0846 47.1223Z" fill="#F44336"/>
</svg>
