<svg width="41" height="41" viewBox="0 0 41 41" fill="none" xmlns="http://www.w3.org/2000/svg">
<path fill-rule="evenodd" clip-rule="evenodd" d="M0.768433 20.5C0.768433 9.45442 9.72264 0.5 20.7682 0.5C31.8138 0.5 40.768 9.45442 40.768 20.5C40.768 31.5456 31.8138 40.5 20.7682 40.5C9.72264 40.5 0.768433 31.5456 0.768433 20.5Z" fill="white"/>
<path d="M20.7614 19.9865C22.5772 19.9865 24.0491 18.5344 24.0491 16.7432C24.0491 14.952 22.5772 13.5 20.7614 13.5C18.9457 13.5 17.4738 14.952 17.4738 16.7432C17.4738 18.5344 18.9457 19.9865 20.7614 19.9865Z
M20.7614 21.6082C17.4704 21.6082 14.8026 24.24 14.8026 27.4865H26.7202C26.7202 24.24 24.0524 21.6082 20.7614 21.6082Z" fill="#9DAFBD"/>
</svg>
