<svg width="453" height="285" viewBox="0 0 453 285" fill="none" xmlns="http://www.w3.org/2000/svg">
<rect x="0.442749" y="0.525879" width="452.009" height="283.746" rx="24" fill="#F2F5F6"/>
<path d="M119.861 252.96H89.6239C88.2841 252.96 86.8799 251.658 86.8799 249.633V81.8731C86.8799 79.8477 88.2841 78.5454 89.6239 78.5454H119.861C121.201 78.5454 122.605 79.8477 122.605 81.8731V249.633C122.605 251.658 121.201 252.96 119.861 252.96Z" fill="white" stroke="#292929" stroke-width="3"/>
<path d="M181.586 252.96H151.349C150.772 252.96 150.122 252.643 149.559 251.873C148.998 251.104 148.605 249.969 148.605 248.647V114.014C148.605 112.693 148.998 111.557 149.559 110.788C150.122 110.018 150.772 109.701 151.349 109.701H181.586C182.162 109.701 182.813 110.018 183.375 110.788C183.937 111.557 184.33 112.693 184.33 114.014V248.647C184.33 249.969 183.937 251.104 183.375 251.873C182.813 252.643 182.162 252.96 181.586 252.96Z" fill="white" stroke="#292929" stroke-width="3"/>
<path d="M243.311 252.96H213.074C211.757 252.96 210.33 251.646 210.33 249.545V135.711C210.33 133.61 211.757 132.296 213.074 132.296H243.311C244.627 132.296 246.055 133.61 246.055 135.711V249.545C246.055 251.646 244.627 252.96 243.311 252.96Z" fill="white" stroke="#292929" stroke-width="3"/>
<path d="M305.036 252.96H274.799C273.116 252.96 272.055 251.781 272.055 250.677V163.067C272.055 161.964 273.116 160.785 274.799 160.785H305.036C306.718 160.785 307.78 161.964 307.78 163.067V250.677C307.78 251.781 306.718 252.96 305.036 252.96Z" fill="white" stroke="#292929" stroke-width="3"/>
<path d="M366.761 252.96H336.524C335.608 252.96 334.847 252.709 334.358 252.381C333.86 252.047 333.78 251.747 333.78 251.615V185.707C333.78 185.575 333.86 185.275 334.358 184.941C334.847 184.613 335.608 184.362 336.524 184.362H366.761C367.676 184.362 368.438 184.613 368.927 184.941C369.425 185.275 369.505 185.575 369.505 185.707V251.615C369.505 251.747 369.425 252.047 368.927 252.381C368.438 252.709 367.676 252.96 366.761 252.96Z" fill="white" stroke="#292929" stroke-width="3"/>
<path d="M296.676 81.5469L333.937 121.818L335.019 122.986L336.121 121.837L341.831 115.885L341.832 115.885C342.934 114.735 344.529 114.396 345.925 114.961C347.337 115.532 348.363 116.956 348.465 118.663L348.466 118.67L350.18 145.328C350.18 145.33 350.18 145.331 350.18 145.333C350.24 146.348 349.88 147.325 349.223 148.014C348.572 148.698 347.698 149.031 346.828 148.966C346.825 148.966 346.822 148.966 346.819 148.966L321.694 146.664L321.685 146.663C320.208 146.537 318.875 145.501 318.334 143.917C317.79 142.325 318.182 140.556 319.293 139.399L319.293 139.399L325.003 133.451L325.983 132.431L325.022 131.393L290.464 94.0777C290.464 94.0776 290.464 94.0774 290.464 94.0773C289.468 93.0014 288.09 92.3719 286.627 92.3589C285.165 92.3459 283.776 92.9508 282.761 94.0086C282.761 94.0089 282.76 94.0091 282.76 94.0094L265.193 112.304L265.193 112.304C262.515 115.096 258.92 116.629 255.207 116.596C251.493 116.563 247.927 114.967 245.298 112.128L245.298 112.128L185.859 47.9699L184.778 46.8028L183.676 47.9508L171.197 60.9585L171.197 60.9586C168.518 63.7505 164.924 65.2829 161.21 65.25C157.497 65.2171 153.931 63.6215 151.303 60.783C151.303 60.7829 151.302 60.7828 151.302 60.7827C151.302 60.7825 151.302 60.7824 151.302 60.7822L129.738 37.4579L129.733 37.4523L129.728 37.4468C128.539 36.1868 127.864 34.4541 127.88 32.6342C127.896 30.8143 128.602 29.0939 129.813 27.8552L129.814 27.8545C132.298 25.3101 136.207 25.3435 138.647 27.929C138.648 27.9303 138.649 27.9316 138.65 27.9329L157.514 48.2596L158.6 47.2518L157.514 48.2596C159.609 50.517 163.073 50.5477 165.207 48.3278L165.208 48.3267L174.908 38.2192L174.908 38.2188C177.587 35.4257 181.182 33.8926 184.896 33.9256C188.611 33.9585 192.178 35.5551 194.806 38.3952L194.807 38.3956L251.505 99.6166L251.506 99.617C253.601 101.878 257.069 101.909 259.204 99.6852L259.205 99.6848L276.779 81.3705L296.676 81.5469ZM296.676 81.5469C296.676 81.5463 296.675 81.5456 296.675 81.545M296.676 81.5469L296.675 81.545M296.675 81.545C291.218 75.6706 282.34 75.5921 276.78 81.3691L296.675 81.545Z" fill="#28A5EB" stroke="#292929" stroke-width="3"/>
</svg>
