<svg width="38" height="38" viewBox="-10 -10 38 38" fill="none" xmlns="http://www.w3.org/2000/svg">
<path d="M17.8193 0.5H6.17555C4.57034 0.5 3.26459 1.80577 3.26459 3.41099V10.8964C3.26459 12.5016 4.57034 13.8074 6.17555 13.8074H13.4887L17.5258 17.8445C17.6048 17.9235 17.7112 17.9659 17.8194 17.9659C17.8726 17.9659 17.9275 17.9559 17.9782 17.9343C18.1338 17.8703 18.2352 17.7181 18.2352 17.5501V13.7774C19.6441 13.5753 20.7303 12.3602 20.7303 10.8964V3.41099C20.7303 1.80577 19.4245 0.5 17.8193 0.5Z
    M13.1444 14.639H6.17553C4.11209 14.639 2.43288 12.9598 2.43288 10.8963V3.63135H2.0162C1.9139 3.63135 1.81492 3.66877 1.73843 3.73696C1.12296 4.28924 0.76947 5.07934 0.76947 5.90608V13.3915C0.76947 14.8553 1.85566 16.0704 3.26457 16.2725V20.0451C3.26457 20.2131 3.36605 20.3653 3.52157 20.4294C3.57229 20.451 3.62718 20.461 3.68043 20.461C3.78854 20.461 3.89501 20.4186 3.97486 20.3396L8.01111 16.3025H13.8039C14.0326 16.3025 14.2181 16.1178 14.2198 15.8891L14.2206 15.7152L13.1444 14.639Z" fill="#9DAFBD"/>
</svg>
