<svg width="65" height="65" viewBox="0 0 65 65" fill="none" xmlns="http://www.w3.org/2000/svg">
<rect x="0.627441" y="0.900391" width="64" height="64" rx="32" fill="#F2F5F6"/>
<g clip-path="url(#clip0)">
<path d="M44.4524 23.4941C41.8724 23.4941 39.4358 24.4741 37.6889 26.1804L32.6274 30.5553L32.6185 30.5466L29.9041 32.8828L29.922 32.9003L25.0935 37.0828C23.9468 38.1941 22.4239 38.8066 20.8024 38.8066C17.4521 38.8066 14.7287 36.1554 14.7287 32.9004C14.7287 29.6454 17.4521 26.9941 20.8024 26.9941C22.4239 26.9941 23.9468 27.6066 25.1741 28.7966L27.2076 30.5553L29.913 28.2191L27.6465 26.2591C25.819 24.4829 23.3913 23.5029 20.8024 23.5029C15.4633 23.4941 11.1274 27.7116 11.1274 32.9004C11.1274 38.0891 15.4633 42.3066 20.8024 42.3066C23.3824 42.3066 25.8102 41.3266 27.566 39.6291L32.6274 35.2454L32.6364 35.2542L35.3418 32.9091L35.3328 32.9004L40.1613 28.7266C41.3081 27.6066 42.831 26.9941 44.4524 26.9941C47.8028 26.9941 50.5262 29.6454 50.5262 32.9004C50.5262 36.1554 47.8028 38.8066 44.4524 38.8066C42.831 38.8066 41.3081 38.1941 40.0808 37.0128L38.0473 35.2541L35.3418 37.5991L37.6083 39.5591C39.4358 41.3353 41.8635 42.3066 44.4435 42.3066C49.7916 42.3066 54.1274 38.0891 54.1274 32.9004C54.1274 27.7116 49.7916 23.4941 44.4524 23.4941Z" fill="#F44336"/>
</g>
<defs>
<clipPath id="clip0">
<rect width="43" height="42" fill="white" transform="translate(11.1274 11.9004)"/>
</clipPath>
</defs>
</svg>
