<svg width="921" height="922" viewBox="0 0 921 922" fill="none" xmlns="http://www.w3.org/2000/svg">
<circle cx="460.325" cy="461.08" r="147.632" stroke="#EEF2F4"/>
<circle cx="460.324" cy="461.08" r="259.701" stroke="#EEF2F4"/>
<mask id="path-3-inside-1" fill="white">
<path d="M818.826 461.08C818.826 555.797 781.343 646.664 714.565 713.835C647.787 781.006 557.141 819.021 462.426 819.576C367.711 820.132 276.625 783.182 209.064 716.799C141.503 650.416 102.957 559.994 101.846 465.284C100.736 370.574 137.15 279.273 203.136 211.324C269.122 143.375 359.316 104.3 454.018 102.634C548.72 100.968 640.233 136.846 708.568 202.433C776.903 268.019 816.506 357.982 818.727 452.673L817.769 452.695C815.553 358.258 776.056 268.535 707.904 203.124C639.751 137.714 548.483 101.931 454.035 103.593C359.586 105.254 269.633 144.225 203.824 211.992C138.015 279.76 101.698 370.817 102.805 465.273C103.913 559.73 142.356 649.91 209.736 716.115C277.116 782.321 367.959 819.171 462.42 818.617C556.882 818.063 647.286 780.15 713.885 713.159C780.484 646.168 817.867 555.543 817.867 461.08H818.826Z" stroke="#EEF2F4" stroke-width="1" mask="url(#path-3-inside-1)"/>
</mask>
<path d="M818.826 461.08C818.826 555.797 781.343 646.664 714.565 713.835C647.787 781.006 557.141 819.021 462.426 819.576C367.711 820.132 276.625 783.182 209.064 716.799C141.503 650.416 102.957 559.994 101.846 465.284C100.736 370.574 137.15 279.273 203.136 211.324C269.122 143.375 359.316 104.3 454.018 102.634C548.72 100.968 640.233 136.846 708.568 202.433C776.903 268.019 816.506 357.982 818.727 452.673L817.769 452.695C815.553 358.258 776.056 268.535 707.904 203.124C639.751 137.714 548.483 101.931 454.035 103.593C359.586 105.254 269.633 144.225 203.824 211.992C138.015 279.76 101.698 370.817 102.805 465.273C103.913 559.73 142.356 649.91 209.736 716.115C277.116 782.321 367.959 819.171 462.42 818.617C556.882 818.063 647.286 780.15 713.885 713.159C780.484 646.168 817.867 555.543 817.867 461.08H818.826Z" stroke="#EEF2F4" stroke-width="1" mask="url(#path-3-inside-1)"/>
<circle cx="460.325" cy="461.08" r="459.724" stroke="#EEF2F4"/>
</svg>
