<svg width="263" height="72" viewBox="0 0 263 72" fill="none" xmlns="http://www.w3.org/2000/svg">
<g filter="url(#filter12_d)">
<path d="M246.13 39.6894C253.33 26.364 243.68 10.1824 228.534 10.1824H38.7966C31.4492 10.1824 24.6934 14.2111 21.2007 20.6753L16.3871 29.5845C9.18732 42.9099 18.8369 59.0916 33.983 59.0916H223.72C231.068 59.0916 237.824 55.0629 241.316 48.5987L246.13 39.6894Z" fill="#EB2828"/>
</g>
<path d="M71.2521 40.8792H67.6521V24.0791H82.2681V40.8792H78.6921V27.3192H71.2521V40.8792ZM88.431 31.0391C89.375 29.6951 90.767 29.0231 92.607 29.0231C94.351 29.0231 95.719 29.6231 96.711 30.8231C97.719 32.0071 98.223 33.4391 98.223 35.1192C98.223 36.7992 97.719 38.2392 96.711 39.4392C95.719 40.6232 94.351 41.2152 92.607 41.2152C91.023 41.2152 89.759 40.6952 88.815 39.6552V46.1592H85.479V29.3591H88.431V31.0391ZM93.999 37.4712C94.543 36.8312 94.815 36.0472 94.815 35.1192C94.815 34.1912 94.543 33.4152 93.999 32.7912C93.455 32.1512 92.719 31.8312 91.791 31.8312C91.103 31.8312 90.487 32.0152 89.943 32.3832C89.415 32.7511 89.031 33.2071 88.791 33.7511V36.4872C89.031 37.0312 89.415 37.4872 89.943 37.8552C90.487 38.2232 91.103 38.4072 91.791 38.4072C92.719 38.4072 93.455 38.0952 93.999 37.4712ZM101.609 39.6072C100.377 38.5352 99.7607 37.0392 99.7607 35.1192C99.7607 33.1992 100.377 31.7032 101.609 30.6312C102.841 29.5591 104.345 29.0231 106.121 29.0231C107.913 29.0231 109.417 29.5591 110.633 30.6312C111.865 31.7032 112.481 33.1992 112.481 35.1192C112.481 37.0392 111.865 38.5352 110.633 39.6072C109.417 40.6792 107.913 41.2152 106.121 41.2152C104.345 41.2152 102.841 40.6792 101.609 39.6072ZM108.305 37.3752C108.833 36.7832 109.097 36.0312 109.097 35.1192C109.097 34.2071 108.833 33.4632 108.305 32.8872C107.777 32.2952 107.049 31.9992 106.121 31.9992C105.193 31.9992 104.465 32.2952 103.937 32.8872C103.425 33.4632 103.169 34.2071 103.169 35.1192C103.169 36.0312 103.425 36.7832 103.937 37.3752C104.465 37.9512 105.193 38.2392 106.121 38.2392C107.049 38.2392 107.777 37.9512 108.305 37.3752ZM126.443 35.6232C126.443 37.3992 125.875 38.7752 124.739 39.7512C123.603 40.7272 122.131 41.2152 120.323 41.2152C118.499 41.2152 117.019 40.6472 115.883 39.5112C114.747 38.3592 114.179 36.6072 114.179 34.2551C114.179 30.5272 115.355 27.9272 117.707 26.4552C118.635 25.8791 119.635 25.4711 120.707 25.2312C121.795 24.9911 122.739 24.7911 123.539 24.6311C124.355 24.4711 124.987 24.1751 125.435 23.7431V26.7912C124.891 27.2392 123.971 27.5672 122.675 27.7752C121.395 27.9671 120.403 28.2471 119.699 28.6151C119.091 28.9511 118.611 29.4232 118.259 30.0311C117.907 30.6231 117.683 31.2391 117.587 31.8791C118.451 30.6791 119.699 30.0791 121.331 30.0791C122.803 30.0791 124.019 30.5752 124.979 31.5672C125.955 32.5592 126.443 33.9112 126.443 35.6232ZM117.587 35.6472C117.587 36.3992 117.811 37.0712 118.259 37.6632C118.707 38.2552 119.395 38.5512 120.323 38.5512C121.251 38.5512 121.931 38.2632 122.363 37.6872C122.811 37.0952 123.035 36.4152 123.035 35.6472C123.035 34.8792 122.811 34.2072 122.363 33.6312C121.931 33.0391 121.251 32.7431 120.323 32.7431C119.411 32.7431 118.723 33.0471 118.259 33.6551C117.811 34.2472 117.587 34.9112 117.587 35.6472ZM133.622 31.9992C133.526 33.4072 133.39 34.6232 133.214 35.6472C133.054 36.6552 132.814 37.5992 132.494 38.4792C132.174 39.3432 131.742 39.9992 131.198 40.4472C130.654 40.8952 129.998 41.1192 129.23 41.1192C128.638 41.1192 128.03 41.0072 127.406 40.7832V38.1432C127.646 38.2392 127.878 38.2872 128.102 38.2872C128.934 38.2872 129.518 37.5432 129.854 36.0552C130.19 34.5672 130.422 32.3352 130.55 29.3591H139.91V40.8792H136.574V31.9992H133.622ZM142.089 35.1192C142.089 34.0792 142.273 33.1592 142.641 32.3591C143.009 31.5431 143.489 30.9031 144.081 30.4391C144.689 29.9751 145.321 29.6231 145.977 29.3831C146.649 29.1431 147.329 29.0231 148.017 29.0231C149.169 29.0231 150.161 29.2392 150.993 29.6712C151.841 30.1031 152.465 30.6631 152.865 31.3512C153.265 32.0231 153.537 32.7911 153.681 33.6551C153.841 34.5031 153.801 35.3512 153.561 36.1992H145.449C145.625 36.9992 146.089 37.5992 146.841 37.9992C147.593 38.3832 148.481 38.5752 149.505 38.5752C150.769 38.5752 151.929 38.3432 152.985 37.8792V40.4952C151.849 40.9752 150.441 41.2152 148.761 41.2152C146.841 41.2152 145.249 40.6792 143.985 39.6072C142.721 38.5352 142.089 37.0392 142.089 35.1192ZM150.561 34.0391C150.641 33.5111 150.489 32.9671 150.105 32.4072C149.721 31.8472 149.065 31.5672 148.137 31.5672C147.401 31.5672 146.769 31.7912 146.241 32.2392C145.713 32.6712 145.441 33.2712 145.425 34.0391H150.561ZM159.055 40.8792H155.815V29.3591H159.007L162.583 35.0712L166.183 29.3591H169.351V40.8792H166.135V34.0871L163.423 38.3832H161.767L159.055 34.0871V40.8792ZM182.47 37.9032C182.47 38.4152 182.742 38.6712 183.286 38.6712C183.51 38.6712 183.718 38.6392 183.91 38.5752V40.7592C183.302 40.9832 182.686 41.0952 182.062 41.0952C180.846 41.0952 179.998 40.6632 179.518 39.7992C178.318 40.7432 176.934 41.2152 175.366 41.2152C174.23 41.2152 173.27 40.9032 172.486 40.2792C171.718 39.6392 171.334 38.7752 171.334 37.6872C171.334 36.7752 171.606 36.0152 172.15 35.4072C172.694 34.7992 173.326 34.3912 174.046 34.1832C174.766 33.9592 175.55 33.8472 176.398 33.8472C177.342 33.8472 178.254 33.9512 179.134 34.1592V33.7511C179.134 33.1591 178.902 32.6872 178.438 32.3352C177.974 31.9832 177.302 31.8071 176.422 31.8071C175.142 31.8071 173.782 32.0951 172.342 32.6712V29.7912C173.878 29.2792 175.366 29.0231 176.806 29.0231C180.582 29.0231 182.47 30.7592 182.47 34.2312V37.9032ZM177.166 35.8392C176.478 35.8392 175.902 35.9672 175.438 36.2232C174.974 36.4792 174.742 36.8792 174.742 37.4232C174.742 37.8392 174.91 38.1832 175.246 38.4552C175.598 38.7112 176.03 38.8392 176.542 38.8392C177.55 38.8392 178.414 38.5272 179.134 37.9032V36.1032C178.398 35.9272 177.742 35.8392 177.166 35.8392Z" fill="white"/>
<defs>
<filter id="filter12_d" x="4.01701" y="0.244431" width="257.133" height="71.4352" filterUnits="userSpaceOnUse" color-interpolation-filters="sRGB">
<feFlood flood-opacity="0" result="BackgroundImageFix"/>
<feColorMatrix in="SourceAlpha" type="matrix" values="0 0 0 0 0 0 0 0 0 0 0 0 0 0 0 0 0 0 127 0" result="hardAlpha"/>
<feMorphology radius="1.32506" operator="dilate" in="SourceAlpha" result="effect1_dropShadow"/>
<feOffset dx="1.32506" dy="1.32506"/>
<feGaussianBlur stdDeviation="4.96897"/>
<feComposite in2="hardAlpha" operator="out"/>
<feColorMatrix type="matrix" values="0 0 0 0 0.945833 0 0 0 0 0.65026 0 0 0 0 0.65026 0 0 0 1 0"/>
<feBlend mode="normal" in2="BackgroundImageFix" result="effect1_dropShadow"/>
<feBlend mode="normal" in="SourceGraphic" in2="effect1_dropShadow" result="shape"/>
</filter>
</defs>
</svg>
