<svg width="265" height="82" viewBox="0 0 265 82" fill="none" xmlns="http://www.w3.org/2000/svg">
<g filter="url(#filter10_d)">
<path d="M13.7031 38.4914C7.7153 25.2529 17.3961 10.2493 31.9258 10.2493H223.227C231.084 10.2493 238.212 14.8489 241.45 22.0071L249.784 40.4322C255.771 53.6707 246.091 68.6744 231.561 68.6744H40.2595C32.4031 68.6744 25.2744 64.0747 22.0368 56.9165L13.7031 38.4914Z" fill="#EB2828"/>
</g>
<path d="M39.1594 43.3498C38.7914 42.3098 38.6074 41.2138 38.6074 40.0618C38.6074 38.9098 38.7914 37.8138 39.1594 36.7738C39.5434 35.7338 40.0954 34.8058 40.8154 33.9898C41.5514 33.1738 42.4954 32.5258 43.6474 32.0458C44.7994 31.5658 46.0954 31.3258 47.5354 31.3258C48.9754 31.3258 50.2714 31.5658 51.4234 32.0458C52.5754 32.5258 53.5114 33.1738 54.2314 33.9898C54.9674 34.8058 55.5194 35.7338 55.8874 36.7738C56.2714 37.8138 56.4634 38.9098 56.4634 40.0618C56.4634 41.2138 56.2714 42.3098 55.8874 43.3498C55.5194 44.3898 54.9674 45.3178 54.2314 46.1338C53.5114 46.9498 52.5754 47.5978 51.4234 48.0778C50.2714 48.5578 48.9754 48.7978 47.5354 48.7978C46.0954 48.7978 44.7994 48.5578 43.6474 48.0778C42.4954 47.5978 41.5514 46.9498 40.8154 46.1338C40.0954 45.3178 39.5434 44.3898 39.1594 43.3498ZM51.3994 43.9258C52.3114 42.9018 52.7674 41.6138 52.7674 40.0618C52.7674 38.5098 52.3114 37.2218 51.3994 36.1978C50.4874 35.1738 49.1994 34.6618 47.5354 34.6618C45.8554 34.6618 44.5594 35.1738 43.6474 36.1978C42.7354 37.2218 42.2794 38.5098 42.2794 40.0618C42.2794 41.6138 42.7354 42.9018 43.6474 43.9258C44.5594 44.9498 45.8554 45.4618 47.5354 45.4618C49.1994 45.4618 50.4874 44.9498 51.3994 43.9258ZM70.5371 43.2058C70.5371 44.9818 69.9691 46.3578 68.8331 47.3338C67.6971 48.3098 66.2251 48.7978 64.4171 48.7978C62.5931 48.7978 61.1131 48.2298 59.9771 47.0938C58.8411 45.9418 58.2731 44.1898 58.2731 41.8378C58.2731 38.1098 59.4491 35.5098 61.8011 34.0378C62.7291 33.4618 63.7291 33.0538 64.8011 32.8138C65.8891 32.5738 66.8331 32.3738 67.6331 32.2138C68.4491 32.0538 69.0811 31.7578 69.5291 31.3258V34.3738C68.9851 34.8218 68.0651 35.1498 66.7691 35.3578C65.4891 35.5498 64.4971 35.8298 63.7931 36.1978C63.1851 36.5338 62.7051 37.0058 62.3531 37.6138C62.0011 38.2058 61.7771 38.8218 61.6811 39.4618C62.5451 38.2618 63.7931 37.6618 65.4251 37.6618C66.8971 37.6618 68.1131 38.1578 69.0731 39.1498C70.0491 40.1418 70.5371 41.4938 70.5371 43.2058ZM61.6811 43.2298C61.6811 43.9818 61.9051 44.6538 62.3531 45.2458C62.8011 45.8378 63.4891 46.1338 64.4171 46.1338C65.3451 46.1338 66.0251 45.8458 66.4571 45.2698C66.9051 44.6778 67.1291 43.9978 67.1291 43.2298C67.1291 42.4618 66.9051 41.7898 66.4571 41.2138C66.0251 40.6218 65.3451 40.3258 64.4171 40.3258C63.5051 40.3258 62.8171 40.6298 62.3531 41.2378C61.9051 41.8298 61.6811 42.4938 61.6811 43.2298ZM78.7453 48.4618H72.7453V36.9418H76.0813V40.5418H78.7453C80.2013 40.5418 81.3373 40.9178 82.1533 41.6698C82.9853 42.4058 83.4013 43.3498 83.4013 44.5018C83.4013 45.6538 82.9853 46.6058 82.1533 47.3578C81.3373 48.0938 80.2013 48.4618 78.7453 48.4618ZM76.0573 42.9418V46.0618H77.9293C78.5853 46.0618 79.0893 45.9258 79.4413 45.6538C79.7933 45.3818 79.9693 44.9978 79.9693 44.5018C79.9693 44.0058 79.7933 43.6218 79.4413 43.3498C79.0893 43.0778 78.5853 42.9418 77.9293 42.9418H76.0573ZM88.6093 48.4618H85.2733V36.9418H88.6093V48.4618ZM101.576 48.4618H98.2644V44.8618C97.4004 45.1818 96.4164 45.3418 95.3124 45.3418C94.0004 45.3418 92.9204 44.9818 92.0724 44.2618C91.2404 43.5418 90.8244 42.4698 90.8244 41.0458V36.9418H94.1604V40.7338C94.1604 41.9338 94.8484 42.5338 96.2244 42.5338C97.0244 42.5338 97.7044 42.4138 98.2644 42.1738V36.9418H101.576V48.4618ZM107.745 48.4618H104.409V36.9418H107.745V41.3098H112.401V36.9418H115.737V48.4618H112.401V44.0938H107.745V48.4618ZM124.566 48.4618H118.566V36.9418H121.902V40.5418H124.566C126.022 40.5418 127.158 40.9178 127.974 41.6698C128.806 42.4058 129.222 43.3498 129.222 44.5018C129.222 45.6538 128.806 46.6058 127.974 47.3578C127.158 48.0938 126.022 48.4618 124.566 48.4618ZM121.878 42.9418V46.0618H123.75C124.406 46.0618 124.91 45.9258 125.262 45.6538C125.614 45.3818 125.79 44.9978 125.79 44.5018C125.79 44.0058 125.614 43.6218 125.262 43.3498C124.91 43.0778 124.406 42.9418 123.75 42.9418H121.878ZM134.43 48.4618H131.094V36.9418H134.43V48.4618ZM136.621 42.7018C136.621 41.6618 136.805 40.7418 137.173 39.9418C137.541 39.1258 138.021 38.4858 138.613 38.0218C139.221 37.5578 139.853 37.2058 140.509 36.9658C141.181 36.7258 141.861 36.6058 142.549 36.6058C143.701 36.6058 144.693 36.8218 145.525 37.2538C146.373 37.6858 146.997 38.2458 147.397 38.9338C147.797 39.6058 148.069 40.3738 148.213 41.2378C148.373 42.0858 148.333 42.9338 148.093 43.7818H139.981C140.157 44.5818 140.621 45.1818 141.373 45.5818C142.125 45.9658 143.013 46.1578 144.037 46.1578C145.301 46.1578 146.461 45.9258 147.517 45.4618V48.0778C146.381 48.5578 144.973 48.7978 143.293 48.7978C141.373 48.7978 139.781 48.2618 138.517 47.1898C137.253 46.1178 136.621 44.6218 136.621 42.7018ZM145.093 41.6218C145.173 41.0938 145.021 40.5498 144.637 39.9898C144.253 39.4298 143.597 39.1498 142.669 39.1498C141.933 39.1498 141.301 39.3738 140.773 39.8218C140.245 40.2538 139.973 40.8538 139.957 41.6218H145.093ZM176.203 31.6618H179.539V48.4618H175.939V38.1178L171.499 44.8618H169.411L164.971 38.0938V48.4618H161.371V31.6618H164.707L170.467 40.3978L176.203 31.6618ZM193.657 49.3978H190.201V47.2858C187.641 47.1738 185.609 46.4858 184.105 45.2218C182.617 43.9578 181.873 42.2378 181.873 40.0618C181.873 37.8858 182.617 36.1658 184.105 34.9018C185.609 33.6378 187.641 32.9498 190.201 32.8378V30.7258H193.657V32.8378C196.185 32.9658 198.193 33.6618 199.681 34.9258C201.169 36.1898 201.913 37.9018 201.913 40.0618C201.913 42.2218 201.169 43.9338 199.681 45.1978C198.193 46.4618 196.185 47.1578 193.657 47.2858V49.3978ZM186.601 37.1578C185.849 37.9258 185.473 38.8938 185.473 40.0618C185.473 41.2298 185.849 42.1978 186.601 42.9658C187.369 43.7338 188.569 44.1738 190.201 44.2858V35.8378C188.569 35.9498 187.369 36.3898 186.601 37.1578ZM193.657 35.8378V44.2858C195.257 44.1578 196.433 43.7098 197.185 42.9418C197.937 42.1738 198.313 41.2138 198.313 40.0618C198.313 38.9098 197.937 37.9498 197.185 37.1818C196.433 36.4138 195.257 35.9658 193.657 35.8378ZM203.855 43.3498C203.487 42.3098 203.303 41.2138 203.303 40.0618C203.303 38.9098 203.487 37.8138 203.855 36.7738C204.239 35.7338 204.791 34.8058 205.511 33.9898C206.247 33.1738 207.191 32.5258 208.343 32.0458C209.495 31.5658 210.791 31.3258 212.231 31.3258C213.671 31.3258 214.967 31.5658 216.119 32.0458C217.271 32.5258 218.207 33.1738 218.927 33.9898C219.663 34.8058 220.215 35.7338 220.583 36.7738C220.967 37.8138 221.159 38.9098 221.159 40.0618C221.159 41.2138 220.967 42.3098 220.583 43.3498C220.215 44.3898 219.663 45.3178 218.927 46.1338C218.207 46.9498 217.271 47.5978 216.119 48.0778C214.967 48.5578 213.671 48.7978 212.231 48.7978C210.791 48.7978 209.495 48.5578 208.343 48.0778C207.191 47.5978 206.247 46.9498 205.511 46.1338C204.791 45.3178 204.239 44.3898 203.855 43.3498ZM216.095 43.9258C217.007 42.9018 217.463 41.6138 217.463 40.0618C217.463 38.5098 217.007 37.2218 216.095 36.1978C215.183 35.1738 213.895 34.6618 212.231 34.6618C210.551 34.6618 209.255 35.1738 208.343 36.1978C207.431 37.2218 206.975 38.5098 206.975 40.0618C206.975 41.6138 207.431 42.9018 208.343 43.9258C209.255 44.9498 210.551 45.4618 212.231 45.4618C213.895 45.4618 215.183 44.9498 216.095 43.9258Z" fill="white"/>
<defs>
<filter id="filter10_d" x="1.96486" y="0.311325" width="262.207" height="80.9511" filterUnits="userSpaceOnUse" color-interpolation-filters="sRGB">
<feFlood flood-opacity="0" result="BackgroundImageFix"/>
<feColorMatrix in="SourceAlpha" type="matrix" values="0 0 0 0 0 0 0 0 0 0 0 0 0 0 0 0 0 0 127 0" result="hardAlpha"/>
<feMorphology radius="1.32506" operator="dilate" in="SourceAlpha" result="effect1_dropShadow"/>
<feOffset dx="1.32506" dy="1.32506"/>
<feGaussianBlur stdDeviation="4.96897"/>
<feComposite in2="hardAlpha" operator="out"/>
<feColorMatrix type="matrix" values="0 0 0 0 0.945833 0 0 0 0 0.65026 0 0 0 0 0.65026 0 0 0 1 0"/>
<feBlend mode="normal" in2="BackgroundImageFix" result="effect1_dropShadow"/>
<feBlend mode="normal" in="SourceGraphic" in2="effect1_dropShadow" result="shape"/>
</filter>
</defs>
</svg>
