<svg width="193" height="65" viewBox="0 0 193 65" fill="none" xmlns="http://www.w3.org/2000/svg">
<g filter="url(#filter0_d)">
<path d="M10.0286 13.2693C10.0128 11.6014 11.3605 10.241 13.0284 10.241H146.451C152.186 10.241 157.644 12.7025 161.441 17.0004L177.178 34.8163C182.88 41.2721 178.297 51.4365 169.683 51.4365H13.3605C11.7147 51.4365 10.3762 50.1106 10.3607 48.4648L10.0286 13.2693Z" fill="#EB2828"/>
</g>
<path d="M30.4435 32.6977C30.1982 32.0044 30.0755 31.2737 30.0755 30.5057C30.0755 29.7377 30.1982 29.007 30.4435 28.3137C30.6995 27.6204 31.0675 27.0017 31.5475 26.4577C32.0382 25.9137 32.6675 25.4817 33.4355 25.1617C34.2035 24.8417 35.0675 24.6817 36.0275 24.6817C36.9875 24.6817 37.8515 24.8417 38.6195 25.1617C39.3875 25.4817 40.0115 25.9137 40.4915 26.4577C40.9822 27.0017 41.3502 27.6204 41.5955 28.3137C41.8515 29.007 41.9795 29.7377 41.9795 30.5057C41.9795 31.2737 41.8515 32.0044 41.5955 32.6977C41.3502 33.391 40.9822 34.0097 40.4915 34.5537C40.0115 35.0977 39.3875 35.5297 38.6195 35.8497C37.8515 36.1697 36.9875 36.3297 36.0275 36.3297C35.0675 36.3297 34.2035 36.1697 33.4355 35.8497C32.6675 35.5297 32.0382 35.0977 31.5475 34.5537C31.0675 34.0097 30.6995 33.391 30.4435 32.6977ZM38.6035 33.0817C39.2115 32.399 39.5155 31.5404 39.5155 30.5057C39.5155 29.471 39.2115 28.6124 38.6035 27.9297C37.9955 27.247 37.1368 26.9057 36.0275 26.9057C34.9075 26.9057 34.0435 27.247 33.4355 27.9297C32.8275 28.6124 32.5235 29.471 32.5235 30.5057C32.5235 31.5404 32.8275 32.399 33.4355 33.0817C34.0435 33.7644 34.9075 34.1057 36.0275 34.1057C37.1368 34.1057 37.9955 33.7644 38.6035 33.0817ZM51.362 32.6017C51.362 33.7857 50.9833 34.703 50.226 35.3537C49.4687 36.0044 48.4873 36.3297 47.282 36.3297C46.066 36.3297 45.0793 35.951 44.322 35.1937C43.5647 34.4257 43.186 33.2577 43.186 31.6897C43.186 29.2044 43.97 27.471 45.538 26.4897C46.1567 26.1057 46.8233 25.8337 47.538 25.6737C48.2633 25.5137 48.8927 25.3804 49.426 25.2737C49.97 25.167 50.3913 24.9697 50.69 24.6817V26.7137C50.3273 27.0124 49.714 27.231 48.85 27.3697C47.9967 27.4977 47.3353 27.6844 46.866 27.9297C46.4607 28.1537 46.1407 28.4684 45.906 28.8737C45.6713 29.2684 45.522 29.679 45.458 30.1057C46.034 29.3057 46.866 28.9057 47.954 28.9057C48.9353 28.9057 49.746 29.2364 50.386 29.8977C51.0367 30.559 51.362 31.4604 51.362 32.6017ZM45.458 32.6177C45.458 33.119 45.6073 33.567 45.906 33.9617C46.2047 34.3564 46.6633 34.5537 47.282 34.5537C47.9007 34.5537 48.354 34.3617 48.642 33.9777C48.9407 33.583 49.09 33.1297 49.09 32.6177C49.09 32.1057 48.9407 31.6577 48.642 31.2737C48.354 30.879 47.9007 30.6817 47.282 30.6817C46.674 30.6817 46.2153 30.8844 45.906 31.2897C45.6073 31.6844 45.458 32.127 45.458 32.6177ZM56.8341 36.1057H52.8341V28.4257H55.0581V30.8257H56.8341C57.8048 30.8257 58.5621 31.0764 59.1061 31.5777C59.6608 32.0684 59.9381 32.6977 59.9381 33.4657C59.9381 34.2337 59.6608 34.8684 59.1061 35.3697C58.5621 35.8604 57.8048 36.1057 56.8341 36.1057ZM55.0421 32.4257V34.5057H56.2901C56.7275 34.5057 57.0635 34.415 57.2981 34.2337C57.5328 34.0524 57.6501 33.7964 57.6501 33.4657C57.6501 33.135 57.5328 32.879 57.2981 32.6977C57.0635 32.5164 56.7275 32.4257 56.2901 32.4257H55.0421ZM63.4101 36.1057H61.1861V28.4257H63.4101V36.1057ZM72.0549 36.1057H69.8469V33.7057C69.2709 33.919 68.6149 34.0257 67.8789 34.0257C67.0042 34.0257 66.2842 33.7857 65.7189 33.3057C65.1642 32.8257 64.8869 32.111 64.8869 31.1617V28.4257H67.1109V30.9537C67.1109 31.7537 67.5695 32.1537 68.4869 32.1537C69.0202 32.1537 69.4735 32.0737 69.8469 31.9137V28.4257H72.0549V36.1057ZM76.1675 36.1057H73.9435V28.4257H76.1675V31.3377H79.2715V28.4257H81.4955V36.1057H79.2715V33.1937H76.1675V36.1057ZM87.381 36.1057H83.381V28.4257H85.605V30.8257H87.381C88.3517 30.8257 89.109 31.0764 89.653 31.5777C90.2077 32.0684 90.485 32.6977 90.485 33.4657C90.485 34.2337 90.2077 34.8684 89.653 35.3697C89.109 35.8604 88.3517 36.1057 87.381 36.1057ZM85.589 32.4257V34.5057H86.837C87.2743 34.5057 87.6103 34.415 87.845 34.2337C88.0797 34.0524 88.197 33.7964 88.197 33.4657C88.197 33.135 88.0797 32.879 87.845 32.6977C87.6103 32.5164 87.2743 32.4257 86.837 32.4257H85.589ZM93.957 36.1057H91.733V28.4257H93.957V36.1057ZM95.4177 32.2657C95.4177 31.5724 95.5404 30.959 95.7857 30.4257C96.0311 29.8817 96.3511 29.455 96.7457 29.1457C97.1511 28.8364 97.5724 28.6017 98.0097 28.4417C98.4577 28.2817 98.9111 28.2017 99.3697 28.2017C100.138 28.2017 100.799 28.3457 101.354 28.6337C101.919 28.9217 102.335 29.295 102.602 29.7537C102.868 30.2017 103.05 30.7137 103.146 31.2897C103.252 31.855 103.226 32.4204 103.066 32.9857H97.6577C97.7751 33.519 98.0844 33.919 98.5857 34.1857C99.0871 34.4417 99.6791 34.5697 100.362 34.5697C101.204 34.5697 101.978 34.415 102.682 34.1057V35.8497C101.924 36.1697 100.986 36.3297 99.8657 36.3297C98.5857 36.3297 97.5244 35.9724 96.6817 35.2577C95.8391 34.543 95.4177 33.5457 95.4177 32.2657ZM101.066 31.5457C101.119 31.1937 101.018 30.831 100.762 30.4577C100.506 30.0844 100.068 29.8977 99.4497 29.8977C98.9591 29.8977 98.5377 30.047 98.1857 30.3457C97.8337 30.6337 97.6524 31.0337 97.6417 31.5457H101.066ZM121.806 24.9057H124.03V36.1057H121.63V29.2097L118.67 33.7057H117.278L114.318 29.1937V36.1057H111.918V24.9057H114.142L117.982 30.7297L121.806 24.9057ZM133.442 36.7297H131.138V35.3217C129.431 35.247 128.077 34.7884 127.074 33.9457C126.082 33.103 125.586 31.9564 125.586 30.5057C125.586 29.055 126.082 27.9084 127.074 27.0657C128.077 26.223 129.431 25.7644 131.138 25.6897V24.2817H133.442V25.6897C135.127 25.775 136.466 26.239 137.458 27.0817C138.45 27.9244 138.946 29.0657 138.946 30.5057C138.946 31.9457 138.45 33.087 137.458 33.9297C136.466 34.7724 135.127 35.2364 133.442 35.3217V36.7297ZM128.738 28.5697C128.237 29.0817 127.986 29.727 127.986 30.5057C127.986 31.2844 128.237 31.9297 128.738 32.4417C129.25 32.9537 130.05 33.247 131.138 33.3217V27.6897C130.05 27.7644 129.25 28.0577 128.738 28.5697ZM133.442 27.6897V33.3217C134.509 33.2364 135.293 32.9377 135.794 32.4257C136.295 31.9137 136.546 31.2737 136.546 30.5057C136.546 29.7377 136.295 29.0977 135.794 28.5857C135.293 28.0737 134.509 27.775 133.442 27.6897ZM140.24 32.6977C139.995 32.0044 139.872 31.2737 139.872 30.5057C139.872 29.7377 139.995 29.007 140.24 28.3137C140.496 27.6204 140.864 27.0017 141.344 26.4577C141.835 25.9137 142.464 25.4817 143.232 25.1617C144 24.8417 144.864 24.6817 145.824 24.6817C146.784 24.6817 147.648 24.8417 148.416 25.1617C149.184 25.4817 149.808 25.9137 150.288 26.4577C150.779 27.0017 151.147 27.6204 151.392 28.3137C151.648 29.007 151.776 29.7377 151.776 30.5057C151.776 31.2737 151.648 32.0044 151.392 32.6977C151.147 33.391 150.779 34.0097 150.288 34.5537C149.808 35.0977 149.184 35.5297 148.416 35.8497C147.648 36.1697 146.784 36.3297 145.824 36.3297C144.864 36.3297 144 36.1697 143.232 35.8497C142.464 35.5297 141.835 35.0977 141.344 34.5537C140.864 34.0097 140.496 33.391 140.24 32.6977ZM148.4 33.0817C149.008 32.399 149.312 31.5404 149.312 30.5057C149.312 29.471 149.008 28.6124 148.4 27.9297C147.792 27.247 146.934 26.9057 145.824 26.9057C144.704 26.9057 143.84 27.247 143.232 27.9297C142.624 28.6124 142.32 29.471 142.32 30.5057C142.32 31.5404 142.624 32.399 143.232 33.0817C143.84 33.7644 144.704 34.1057 145.824 34.1057C146.934 34.1057 147.792 33.7644 148.4 33.0817Z" fill="white"/>
<defs>
<filter id="filter0_d" x="0.0904999" y="0.303024" width="192.2" height="63.7216" filterUnits="userSpaceOnUse" color-interpolation-filters="sRGB">
<feFlood flood-opacity="0" result="BackgroundImageFix"/>
<feColorMatrix in="SourceAlpha" type="matrix" values="0 0 0 0 0 0 0 0 0 0 0 0 0 0 0 0 0 0 127 0" result="hardAlpha"/>
<feMorphology radius="1.32506" operator="dilate" in="SourceAlpha" result="effect1_dropShadow"/>
<feOffset dx="1.32506" dy="1.32506"/>
<feGaussianBlur stdDeviation="4.96897"/>
<feComposite in2="hardAlpha" operator="out"/>
<feColorMatrix type="matrix" values="0 0 0 0 0.945833 0 0 0 0 0.65026 0 0 0 0 0.65026 0 0 0 1 0"/>
<feBlend mode="normal" in2="BackgroundImageFix" result="effect1_dropShadow"/>
<feBlend mode="normal" in="SourceGraphic" in2="effect1_dropShadow" result="shape"/>
</filter>
</defs>
</svg>
