<svg width="64" height="65" viewBox="0 0 64 65" fill="none" xmlns="http://www.w3.org/2000/svg">
<rect y="0.726807" width="64" height="64" rx="32" fill="#F2F5F6"/>
<g clip-path="url(#clip0)">
<path d="M40.6328 30.9495C41.3663 30.9495 41.9609 30.3374 41.9609 29.5823C41.9609 28.8272 41.3663 28.2151 40.6328 28.2151C39.8993 28.2151 39.3047 28.8272 39.3047 29.5823C39.3047 30.3374 39.8993 30.9495 40.6328 30.9495Z" fill="#51B6EF"/>
<path d="M43.6875 17.9612H41.9609V16.594C41.9609 15.8389 41.3663 15.2268 40.6328 15.2268C39.8993 15.2268 39.3047 15.8389 39.3047 16.594V17.9612H33.2617V16.594C33.2617 15.8389 32.6671 15.2268 31.9336 15.2268C31.2001 15.2268 30.6055 15.8389 30.6055 16.594V17.9612H24.6289V16.594C24.6289 15.8389 24.0343 15.2268 23.3008 15.2268C22.5673 15.2268 21.9727 15.8389 21.9727 16.594V17.9612H20.3125C17.3832 17.9612 15 20.4145 15 23.4299V44.7581C15 47.7735 17.3832 50.2268 20.3125 50.2268H30.4727C31.2062 50.2268 31.8008 49.6147 31.8008 48.8596C31.8008 48.1045 31.2062 47.4924 30.4727 47.4924H20.3125C18.8478 47.4924 17.6562 46.2658 17.6562 44.7581V23.4299C17.6562 21.9222 18.8478 20.6956 20.3125 20.6956H21.9727V22.0627C21.9727 22.8178 22.5673 23.4299 23.3008 23.4299C24.0343 23.4299 24.6289 22.8178 24.6289 22.0627V20.6956H30.6055V22.0627C30.6055 22.8178 31.2001 23.4299 31.9336 23.4299C32.6671 23.4299 33.2617 22.8178 33.2617 22.0627V20.6956H39.3047V22.0627C39.3047 22.8178 39.8993 23.4299 40.6328 23.4299C41.3663 23.4299 41.9609 22.8178 41.9609 22.0627V20.6956H43.6875C45.1522 20.6956 46.3438 21.9222 46.3438 23.4299V31.2229C46.3438 31.978 46.9384 32.5901 47.6719 32.5901C48.4054 32.5901 49 31.978 49 31.2229V23.4299C49 20.4145 46.6168 17.9612 43.6875 17.9612Z" fill="#51B6EF"/>
<path d="M40.9649 33.6838C36.5342 33.6838 32.9297 37.3944 32.9297 41.9553C32.9297 46.5163 36.5342 50.2268 40.9649 50.2268C45.3955 50.2268 49 46.5163 49 41.9553C49 37.3944 45.3955 33.6838 40.9649 33.6838ZM40.9649 47.4924C37.999 47.4924 35.586 45.0085 35.586 41.9553C35.586 38.9021 37.999 36.4182 40.9649 36.4182C43.9308 36.4182 46.3438 38.9021 46.3438 41.9553C46.3438 45.0085 43.9308 47.4924 40.9649 47.4924Z" fill="#51B6EF"/>
<path d="M42.8906 40.5881H42.293V39.1526C42.293 38.3975 41.6984 37.7854 40.9648 37.7854C40.2313 37.7854 39.6367 38.3975 39.6367 39.1526V41.9553C39.6367 42.7104 40.2313 43.3225 40.9648 43.3225H42.8906C43.6241 43.3225 44.2188 42.7104 44.2188 41.9553C44.2188 41.2002 43.6241 40.5881 42.8906 40.5881Z" fill="#51B6EF"/>
<path d="M34.8555 30.9495C35.589 30.9495 36.1836 30.3374 36.1836 29.5823C36.1836 28.8272 35.589 28.2151 34.8555 28.2151C34.122 28.2151 33.5273 28.8272 33.5273 29.5823C33.5273 30.3374 34.122 30.9495 34.8555 30.9495Z" fill="#51B6EF"/>
<path d="M29.0781 36.8967C29.8116 36.8967 30.4062 36.2846 30.4062 35.5295C30.4062 34.7745 29.8116 34.1624 29.0781 34.1624C28.3446 34.1624 27.75 34.7745 27.75 35.5295C27.75 36.2846 28.3446 36.8967 29.0781 36.8967Z" fill="#51B6EF"/>
<path d="M23.3008 30.9495C24.0343 30.9495 24.6289 30.3374 24.6289 29.5823C24.6289 28.8272 24.0343 28.2151 23.3008 28.2151C22.5673 28.2151 21.9727 28.8272 21.9727 29.5823C21.9727 30.3374 22.5673 30.9495 23.3008 30.9495Z" fill="#51B6EF"/>
<path d="M23.3008 36.8967C24.0343 36.8967 24.6289 36.2846 24.6289 35.5295C24.6289 34.7745 24.0343 34.1624 23.3008 34.1624C22.5673 34.1624 21.9727 34.7745 21.9727 35.5295C21.9727 36.2846 22.5673 36.8967 23.3008 36.8967Z" fill="#51B6EF"/>
<path d="M23.3008 42.844C24.0343 42.844 24.6289 42.2319 24.6289 41.4768C24.6289 40.7217 24.0343 40.1096 23.3008 40.1096C22.5673 40.1096 21.9727 40.7217 21.9727 41.4768C21.9727 42.2319 22.5673 42.844 23.3008 42.844Z" fill="#51B6EF"/>
<path d="M29.0781 42.844C29.8116 42.844 30.4062 42.2319 30.4062 41.4768C30.4062 40.7217 29.8116 40.1096 29.0781 40.1096C28.3446 40.1096 27.75 40.7217 27.75 41.4768C27.75 42.2319 28.3446 42.844 29.0781 42.844Z" fill="#51B6EF"/>
<path d="M29.0781 30.9495C29.8116 30.9495 30.4062 30.3374 30.4062 29.5823C30.4062 28.8272 29.8116 28.2151 29.0781 28.2151C28.3446 28.2151 27.75 28.8272 27.75 29.5823C27.75 30.3374 28.3446 30.9495 29.0781 30.9495Z" fill="#51B6EF"/>
</g>
<defs>
<clipPath id="clip0">
<rect width="34" height="35" fill="white" transform="translate(15 15.2268)"/>
</clipPath>
</defs>
</svg>
