<svg width="65" height="65" viewBox="0 0 65 65" fill="none" xmlns="http://www.w3.org/2000/svg">
<rect x="0.5" y="0.313599" width="64" height="64" rx="32" fill="#F2F5F6"/>
<g clip-path="url(#clip0)">
<path d="M47.1406 23.4067C42.9013 18.6309 40.382 14.4267 39.0149 11.7408C37.5343 8.83152 37.0491 7.0275 37.0454 7.01314L36.6047 5.3136L35.0306 6.02972C34.8467 6.11337 30.4977 8.13633 28.0609 13.1073C26.8376 15.6029 26.593 18.3813 26.6033 20.2726C26.6092 21.3733 25.8447 22.329 24.7854 22.545C24.0428 22.6963 23.2788 22.4609 22.7428 21.9141L19.8108 18.9235L18.8022 20.3421C18.6975 20.4893 16.2327 23.9567 15.7839 24.6495C13.5927 28.0329 12.45 31.9743 12.4797 36.0474C12.5193 41.4874 14.6167 46.584 18.3854 50.3987C22.1538 54.213 27.1665 56.3136 32.5002 56.3136C43.5397 56.3135 52.521 47.1526 52.521 35.8923C52.5211 31.8096 50.56 27.2588 47.1406 23.4067ZM32.5003 53.3227C27.9456 53.3227 23.6664 51.5303 20.451 48.2756C17.2354 45.0209 15.4459 40.6702 15.412 36.0252C15.3866 32.5479 16.3613 29.1843 18.2306 26.2982C18.4589 25.9459 19.3744 24.643 20.1692 23.5187L20.6695 24.0291C21.9003 25.2845 23.6536 25.8261 25.3608 25.4779C27.7934 24.9816 29.5492 22.7857 29.5356 20.2562C29.5271 18.6909 29.7195 16.4121 30.6837 14.4449C31.8574 12.0506 33.612 10.4859 34.8312 9.61574C35.934 12.4767 38.7293 18.3872 44.967 25.4143C46.3566 26.9797 49.5888 31.1345 49.5888 35.8924C49.5888 45.5034 41.9228 53.3227 32.5003 53.3227Z" fill="#F44336"/>
<path d="M36.19 29.514L24.7744 46.5657H28.8104L40.226 29.514H36.19Z" fill="#F44336"/>
<path d="M38.6257 37.3091C36.0942 37.3091 34.1836 39.0387 34.1836 42.0593C34.1836 45.1042 36.0941 46.8094 38.6257 46.8094C41.1572 46.8094 43.0678 45.1042 43.0678 42.0593C43.0678 39.0387 41.1571 37.3091 38.6257 37.3091ZM38.6257 44.1785C38.1003 44.1785 37.5749 43.6913 37.5749 42.0592C37.5749 40.4271 38.1003 39.9399 38.6257 39.9399C39.1511 39.9399 39.6764 40.4271 39.6764 42.0592C39.6764 43.6913 39.1511 44.1785 38.6257 44.1785Z" fill="#F44336"/>
<path d="M30.8165 34.0206C30.8165 31.0001 28.906 29.2706 26.3744 29.2706C23.8429 29.2706 21.9323 31.0001 21.9323 34.0206C21.9323 37.0656 23.8429 38.7708 26.3744 38.7708C28.906 38.7708 30.8165 37.0656 30.8165 34.0206ZM25.3237 34.0206C25.3237 32.3885 25.849 31.9013 26.3744 31.9013C26.8998 31.9013 27.4252 32.3885 27.4252 34.0206C27.4252 35.6527 26.8998 36.14 26.3744 36.14C25.849 36.14 25.3237 35.6527 25.3237 34.0206Z" fill="#F44336"/>
</g>
<defs>
<clipPath id="clip0">
<rect width="50" height="51" fill="white" transform="translate(7.5 5.3136)"/>
</clipPath>
</defs>
</svg>
